<?xml version="1.0" standalone="no"?><!DOCTYPE svg PUBLIC "-//W3C//DTD SVG 1.1//EN" "http://www.w3.org/Graphics/SVG/1.1/DTD/svg11.dtd"><svg t="1595825573401" class="icon" viewBox="0 0 1024 1024" version="1.1" xmlns="http://www.w3.org/2000/svg" p-id="1650" xmlns:xlink="http://www.w3.org/1999/xlink" width="16" height="16"><defs><style type="text/css"></style></defs><path d="M557.72 546.68c-190.93-45.82-389.74 43.05-424.83 171.63 9.09 34.76 30.26 70.79 66.13 106.66 172.71 172.71 349.13 4.95 369.18-213.77-1.88-21.44-5.32-43.03-10.48-64.52z" fill="#FFC700" opacity=".5" p-id="1651"></path><path d="M521.3 347.18c14.16 36.72 26.48 76.65 36.62 118.9 70.1 16.82 133.99 39.55 187 66.95 8.43-15.6 14.49-32.15 18.17-49.11-7.49-33.5-24.25-65.34-50.32-91.41-51.8-51.79-126.36-66.86-191.47-45.33z" fill="#FFC700" opacity=".5" p-id="1652"></path><path d="M345.66 919.64c-10.96 0-21.96-1.02-32.91-3.08-45-8.46-88.8-33.73-130.19-75.12-41.39-41.39-66.66-85.19-75.12-130.19-7.87-41.88-0.58-84.46 21.07-123.14 14.04-25.08 33.68-48.19 58.5-68.85-4.75-8.75-9.25-17.51-13.5-26.25-38.33-78.96-54.52-153.73-46.83-216.25 3.77-30.59 13.23-58.23 28.13-82.17 15.83-25.42 37.82-46.69 65.35-63.21 25.36-15.21 51.17-24.11 76.71-26.44 24.92-2.28 49.66 1.66 73.55 11.68 87.83 36.87 162.79 156.85 206.71 330.21 173.37 43.92 293.35 118.88 330.21 206.71 10.03 23.89 13.96 48.64 11.68 73.55-2.33 25.54-11.23 51.35-26.44 76.71-16.52 27.53-37.79 49.52-63.21 65.35-23.93 14.9-51.58 24.37-82.17 28.13-10.13 1.25-20.58 1.87-31.32 1.87-55.54 0-118.76-16.57-184.93-48.7-8.74-4.24-17.49-8.75-26.25-13.5-20.67 24.82-43.77 44.46-68.85 58.5-28.53 16.03-59.22 24.19-90.19 24.19zM211 560.13c-17.52 15.55-31.73 32.65-41.86 50.73-16.49 29.44-21.85 60.33-15.94 91.79 6.69 35.61 27.65 71.23 62.28 105.86 34.64 34.64 70.25 55.59 105.86 62.28 31.46 5.91 62.34 0.55 91.79-15.94 18.08-10.13 35.19-24.33 50.73-41.86-49.71-31.36-98.04-69.89-140.51-112.36-42.46-42.46-80.99-90.79-112.35-140.5z m321.06 238.68a612.65 612.65 0 0 0 19.26 9.79c70.86 34.4 136.64 49.1 190.22 42.5 49.01-6.03 86.4-30 111.14-71.23 22.65-37.75 26.5-73.17 11.75-108.29-29.24-69.66-131.47-133.46-276.57-173.72 11.47 74.38 4.97 151.95-19.01 222.05-9.79 28.63-22.12 55.05-36.79 78.9zM248.51 532.34c29.82 47.8 66.83 94.43 107.77 135.38 40.94 40.94 87.57 77.96 135.38 107.77 13.09-21.08 24.32-44.88 33.14-70.65 23.66-69.16 28.38-146.46 13.6-219.24-72.78-14.78-150.08-10.06-219.24 13.6-25.77 8.81-49.57 20.05-70.65 33.14z m61.96-381.53c-21.56 0-43.52 6.82-66.34 20.51-41.23 24.74-65.2 62.13-71.23 111.14-6.6 53.58 8.1 119.36 42.5 190.22 3.11 6.41 6.38 12.83 9.79 19.26 23.85-14.67 50.27-27 78.9-36.79 70.1-23.98 147.66-30.48 222.05-19.01-40.26-145.09-104.06-247.32-173.72-276.57-13.89-5.84-27.83-8.76-41.95-8.76z" fill="#3F2704" p-id="1653"></path><path d="M744.9 556.32c-3.6 0-7.26-0.84-10.68-2.61-51.19-26.47-112.34-48.34-181.74-65a23.268 23.268 0 0 1-17.2-17.21c-16.66-69.4-38.52-130.54-65-181.74-5.83-11.27-1.56-25.14 9.61-31.17 39.09-21.12 84.96-29.39 129.17-23.27 45.73 6.33 87.2 26.96 119.92 59.69s53.36 74.19 59.69 119.92c6.11 44.21-2.15 90.08-23.27 129.17-4.21 7.78-12.22 12.22-20.5 12.22zM577.15 446.85c58 14.7 110.49 33.05 156.54 54.7 9.45-25.41 12.6-53.21 8.86-80.23-4.92-35.6-21-67.89-46.49-93.38-25.49-25.49-57.78-41.57-93.38-46.49-27.02-3.74-54.82-0.59-80.23 8.86 21.66 46.05 40 98.54 54.7 156.54zM695.43 216.65c-6.96 0-13.92-2.65-19.22-7.95-5.14-5.14-7.96-11.96-7.96-19.22 0-7.26 2.83-14.09 7.96-19.22 5.13-5.13 11.96-7.96 19.22-7.96 7.26 0 14.09 2.83 19.23 7.96 10.59 10.59 10.6 27.84 0 38.44l-0.01 0.01c-5.3 5.29-12.26 7.94-19.22 7.94zM824.45 345.67c-6.96 0-13.92-2.65-19.22-7.95-5.13-5.13-7.96-11.96-7.96-19.22 0-7.26 2.83-14.09 7.96-19.22 10.6-10.6 27.84-10.59 38.44 0 10.6 10.6 10.6 27.85 0 38.45-5.3 5.29-12.26 7.94-19.22 7.94z" fill="#3F2704" p-id="1654"></path></svg>