<?xml version="1.0" standalone="no"?><!DOCTYPE svg PUBLIC "-//W3C//DTD SVG 1.1//EN" "http://www.w3.org/Graphics/SVG/1.1/DTD/svg11.dtd"><svg class="icon" width="200px" height="200.00px" viewBox="0 0 1024 1024" version="1.1" xmlns="http://www.w3.org/2000/svg"><path d="M888.9 199.2v-77.1c-24.8-44.2-80.5-58-123.8-58v895.5h123.8V896c-4-2-8.2-3.7-12.6-5.3v-28.5c4.4 1.6 8.6 3.4 12.6 5.4v-27.7c-4-2.3-8.2-4.3-12.6-6.2v-28.2c4.4 1.9 8.6 4 12.6 6.3v-27.9c-4-2.6-8.2-5-12.6-7V749c4.4 2.2 8.7 4.6 12.6 7.2V728c-3.9-2.9-8.2-5.6-12.6-7.9v-27.7c4.4 2.4 8.7 5.1 12.6 8.1V672c-3.9-3.3-8.1-6.2-12.6-8.8V636c4.5 2.7 8.7 5.7 12.6 9v-28.8c-3.9-3.6-8.1-6.8-12.6-9.6v-27.1c4.5 3 8.7 6.3 12.6 9.9v-29.1c-3.9-3.9-8.1-7.4-12.6-10.5v-26.9c4.5 3.3 8.8 6.8 12.6 10.8v-29.4c-3.8-4.2-8.1-8-12.6-11.3v-26.6c4.6 3.5 8.8 7.4 12.6 11.6v-29.7c-3.8-4.5-8-8.6-12.6-12.2v-26.3c4.6 3.8 8.8 7.9 12.6 12.5v-30c-3.8-4.8-8-9.2-12.6-13V353c4.6 4 8.9 8.5 12.6 13.4v-30.3c-3.8-5.2-8-9.8-12.6-13.9v-25.8c4.6 4.3 8.9 9 12.6 14.2V280c-3.7-5.5-8-10.3-12.6-14.7v-25.5c4.7 4.6 8.9 9.6 12.6 15.1V224c-3.7-5.8-7.9-10.9-12.6-15.5v-25.3c4.7 4.9 8.9 10.2 12.6 16z m-70 681.7c-11.7-0.9-23.5-1.5-35.1-1.7v-30.1c11.6 0.3 23.4 1.1 35.1 2.2v29.6z m0-58.5c-11.7-1.1-23.5-1.7-35.1-2v-30.1c11.6 0.4 23.4 1.2 35.1 2.6v29.5z m0-58.5c-11.7-1.3-23.5-2-35.1-2.3v-30.1c11.6 0.5 23.4 1.4 35.1 3v29.4z m0-58.5c-11.7-1.4-23.5-2.2-35.1-2.6v-30.1c11.6 0.5 23.4 1.6 35.1 3.3v29.4z m0-58.5c-11.7-1.6-23.5-2.5-35.1-2.9v-30.1c11.6 0.6 23.4 1.8 35.1 3.7v29.3z m0-58.5c-11.7-1.7-23.5-2.7-35.1-3.2v-30.1c11.6 0.6 23.4 2 35.1 4.1v29.2z m0-58.5c-11.7-1.9-23.5-3-35.1-3.5v-30.1c11.6 0.7 23.4 2.2 35.1 4.5v29.1z m0-58.5c-11.7-2-23.6-3.2-35.1-3.7v-30.1c11.5 0.8 23.4 2.3 35.1 4.8v29z m0-58.5c-11.7-2.2-23.6-3.5-35.1-4v-30.1c11.5 0.8 23.4 2.5 35.1 5.2v28.9z m0-58.5c-11.7-2.4-23.6-3.7-35.1-4.3V320c11.5 0.9 23.4 2.7 35.1 5.6v28.8z m0-58.5c-11.7-2.5-23.6-4-35.1-4.6v-30.1c11.5 0.9 23.4 2.8 35.1 5.9v28.8z m0-58.5c-11.7-2.7-23.6-4.2-35.1-4.9v-30.1c11.5 1 23.4 3 35.1 6.3v28.7z m0-58.5c-11.7-2.8-23.6-4.4-35.1-5.2v-30.1c11.5 1 23.4 3.2 35.1 6.7v28.6z m29.8 705.5c-8-1.3-16.1-2.3-24.3-3v-29.5c8.2 0.9 16.3 2.1 24.3 3.5v29z m0-57.9c-8-1.5-16.1-2.6-24.3-3.5v-29.4c8.2 1.1 16.3 2.5 24.3 4.1v28.8z m0-57.9c-8-1.7-16.1-3-24.3-4v-29.3c8.2 1.2 16.3 2.8 24.3 4.7v28.6z m0-57.9c-7.9-1.9-16.1-3.4-24.3-4.5V677c8.2 1.4 16.4 3.1 24.3 5.3v28.4z m0-58c-7.9-2.1-16.1-3.7-24.3-5v-29.1c8.2 1.6 16.4 3.5 24.3 5.9v28.2z m0-57.9c-7.9-2.3-16-4.1-24.3-5.5v-29c8.3 1.7 16.4 3.8 24.3 6.4v28.1z m0-57.9c-7.9-2.5-16-4.5-24.3-6V502c8.3 1.9 16.4 4.2 24.3 7v27.9z m0-57.9c-7.8-2.7-16-4.9-24.3-6.5v-28.8c8.3 2 16.4 4.5 24.3 7.6V479z m0-57.9c-7.8-2.9-16-5.3-24.3-7.1v-28.7c8.3 2.2 16.5 4.9 24.3 8.2v27.6z m0-57.9c-7.8-3.1-16-5.6-24.3-7.6V327c8.3 2.3 16.5 5.3 24.3 8.8v27.4z m0-58c-7.8-3.3-16-6-24.3-8.1v-28.5c8.3 2.5 16.5 5.6 24.3 9.4v27.2z m0-57.9c-7.8-3.6-15.9-6.4-24.3-8.6v-28.4c8.3 2.7 16.5 6 24.3 10v27z m0-57.9c-7.7-3.8-15.9-6.8-24.3-9.1V152c8.3 2.8 16.6 6.3 24.3 10.5v26.9z m22.1 699.7c-5.4-1.4-10.9-2.7-16.6-3.8v-28.9c5.6 1.2 11.2 2.6 16.6 4.1v28.6z m0-57.1c-5.4-1.7-10.9-3.1-16.6-4.4v-28.7c5.7 1.4 11.2 3 16.6 4.8V832z m0-57.2c-5.4-1.9-10.9-3.6-16.6-5v-28.5c5.7 1.6 11.2 3.4 16.6 5.4v28.1z m0-57.1c-5.3-2.2-10.9-4-16.6-5.6v-28.3c5.7 1.8 11.2 3.8 16.6 6.1v27.8z m0-57.1c-5.3-2.4-10.8-4.5-16.6-6.3v-28.1c5.7 2 11.3 4.3 16.6 6.8v27.6z m0-57.1c-5.3-2.6-10.8-4.9-16.6-6.9v-27.9c5.7 2.2 11.3 4.7 16.6 7.5v27.3z m0-57.2c-5.2-2.9-10.8-5.3-16.6-7.5v-27.7c5.7 2.4 11.3 5.1 16.6 8.2v27z m0-57.1c-5.2-3.1-10.8-5.8-16.6-8.2v-27.5c5.8 2.6 11.3 5.5 16.6 8.8v26.9z m0-57.1c-5.2-3.3-10.8-6.2-16.6-8.8V396c5.8 2.8 11.4 6 16.6 9.5v26.6z m0-57.2c-5.2-3.6-10.7-6.7-16.6-9.4v-27.1c5.8 3 11.4 6.4 16.6 10.2v26.3z m0-57.1c-5.2-3.8-10.7-7.1-16.6-10v-26.9c5.8 3.2 11.4 6.8 16.6 10.9v26z m0-57.1c-5.1-4-10.7-7.6-16.6-10.6v-26.7c5.9 3.4 11.4 7.2 16.6 11.5v25.8z m0-57.1c-5.1-4.3-10.7-8-16.6-11.3v-26.5c5.9 3.6 11.4 7.7 16.6 12.2v25.6zM572.8 316.2h0v0.4c-2.1 0.3-6 0.6-6 0.6l-215 89.6c-4.8 2-7.9 6.7-7.9 11.9v103.8l-116 26.6c-5.8 1.3-10 6.5-10 12.6v78l-70.4 3c-6.9 0.3-12.3 5.9-12.3 12.8v149.9c0 5.5 3.5 10.4 8.8 12.1l423.8 141.3s1.2 0.4 2.8 0.6c-0.1 0.2-0.2 0.3-0.2 0.5l188.2-0.2V64.2l-185.7 88.3v163.7z m-350 453.9c0 1.4-0.5 2.5-1.6 3.4-0.7 0.6-1.7 1-2.6 1-0.4 0-0.6-0.1-0.9-0.1l-61.8-12.9c-2-0.5-3.5-2.2-3.5-4.3v-25.5c0-1.3 0.6-2.5 1.5-3.3 0.9-0.8 2.2-1.2 3.4-1l61.8 9c2.1 0.4 3.7 2.2 3.7 4.3v29.4z m0-58.8c0 1.2-0.5 2.3-1.4 3.1-0.8 0.7-1.9 1.2-2.9 1.2h-0.3l-62-5.2c-2.2-0.2-3.9-2-3.9-4.3v-25.5c0-1.2 0.5-2.3 1.3-3.1 0.8-0.8 1.9-1.3 3.1-1.3l61.9 1.4c2.2 0 4.2 1.9 4.2 4.3v29.4z m52.8 37.1c0 1.3-0.5 2.4-1.6 3.3-0.7 0.6-1.7 1.1-2.8 1.1-0.2 0-0.3 0-0.5-0.1l-27.8-4.1c-2.1-0.3-3.7-2.1-3.7-4.2v-61.9c0-1.2 0.5-2.3 1.3-3.1 0.8-0.8 1.9-1.3 3.1-1.2l27.8 0.5c2.3 0 4.3 1.9 4.3 4.3v65.4z m0-98c0 2.3-1.8 4.2-4.2 4.3l-27.8 1.2h-0.2c-1.1 0-2.2-0.5-3-1.3-0.8-0.7-1.3-1.9-1.3-3.1v-61.9c0-2.1 1.5-3.9 3.6-4.2l27.8-4.6c1.2-0.3 2.5 0.1 3.4 0.9 1 0.8 1.6 2 1.6 3.3v65.4z m66.2 107.7c0 1.2-0.5 2.4-1.5 3.3-0.8 0.6-1.7 1-2.8 1h-0.5l-35.1-5.2c-2.1-0.3-3.6-2.1-3.6-4.3v-69.2c0-1.1 0.5-2.3 1.3-3 0.8-0.8 1.9-1.4 3.1-1.3l35 0.7c2.3 0.1 4.3 2 4.3 4.3v73.7z m-4.2-106.3l-35 1.5h-0.2c-1.1 0-2.2-0.4-3-1.2-0.8-0.8-1.3-1.9-1.3-3.1v-69.2c0-2.1 1.5-3.9 3.5-4.3l35-5.8c1.3-0.2 2.5 0.2 3.5 1 0.9 0.8 1.4 2 1.4 3.3v73.6h0.1c0.2 2.3-1.7 4.1-4 4.2z m203.6 135.3c0 1.3-0.5 2.4-1.4 3.3-0.8 0.6-1.8 1.1-2.8 1.1-0.3 0-0.5-0.1-0.7-0.1l-159.7-23.3c-2.1-0.3-3.7-2.1-3.7-4.3v-78.6c0-1.1 0.5-2.3 1.3-3 0.9-0.8 2-1.4 3.1-1.3l159.7 3.4c2.3 0 4.2 1.9 4.2 4.3v98.5z m0-147.8c0 2.3-1.8 4.2-4 4.3l-159.7 6.6h-0.2c-1.2 0-2.2-0.4-3-1.2-0.8-0.8-1.4-1.9-1.4-3.1v-78.6c0-2.1 1.6-3.9 3.7-4.3l159.7-26.7c1.3-0.2 2.5 0.2 3.4 1 1 0.8 1.5 2 1.5 3.3v98.7z m0-147.9c0 2-1.3 3.7-3.3 4.2l-159.7 36.7c-0.3 0-0.6 0.1-0.9 0.1-1 0-1.9-0.4-2.7-0.9-1-0.8-1.7-2.1-1.7-3.4v-78.6c0-1.8 1.2-3.5 2.9-4l159.7-56.6c1.4-0.4 2.8-0.3 3.9 0.6 1.2 0.8 1.8 2.1 1.8 3.5v98.4z m99.5-325.6l45-19.9V179l-45 15.1v-28.3z m0 57.5c15-6.3 30-12.6 45-18.8v33.1c-15 4.7-30 9.3-45 14v-28.3z m0 57.5l45-17.8v33l-45 12.9v-28.1z m0 57.5l45-16.7v33c-15 4-30 7.9-45 11.9v-28.2z m0 57.5c15-5.2 30-10.5 45-15.7v33l-45 10.8v-28.1z m0 57.6c15-4.9 30-9.8 45-14.6v32.9l-45 9.8v-28.1z m0 57.5c15-4.5 30-9.1 45-13.6v32.9l-45 8.7v-28z m0 57.5l45-12.6v32.8c-15 2.5-30 5.1-45 7.6v-27.8z m0 57.5c15-3.8 30-7.7 45-11.5v32.8l-45 6.6v-27.9z m0 57.5l45-10.5v32.8c-15 1.8-30 3.7-45 5.5v-27.8z m0 57.6c15-3.1 30-6.3 45-9.4v32.7l-45 4.4V741z m0 57.5l45-8.4v32.7l-45 3.4v-27.7z m0 57.5c15-2.4 30-4.9 45-7.3v32.7c-15 0.8-30 1.5-45 2.3V856z m-45.6-670.1l31.8-14v26.9l-31.8 10.6v-23.5z m0 56.4c10.6-4.4 21.2-8.9 31.8-13.3v26.8l-31.8 9.9v-23.4z m0.1 56.5c10.6-4.2 21.1-8.4 31.7-12.5V313l-31.8 9.1c0-7.8 0-15.5 0.1-23.3z m0 56.5c10.6-3.9 21.1-7.9 31.7-11.8v26.7l-31.8 8.4c0-7.8 0.1-15.6 0.1-23.3z m0 56.4l31.7-11.1v26.6c-10.6 2.5-21.2 5.1-31.8 7.6l0.1-23.1z m0 56.5c10.6-3.4 21.1-6.9 31.6-10.3v26.5l-31.8 6.9c0.1-7.7 0.2-15.4 0.2-23.1z m0.1 56.4c10.5-3.2 21.1-6.4 31.6-9.6v26.5l-31.8 6.1c0.1-7.6 0.1-15.3 0.2-23z m0 56.5c10.5-3 21-5.9 31.6-8.9v26.4l-31.8 5.4 0.2-22.9z m0 56.5l31.5-8.1v26.3l-31.8 4.6c0.2-7.6 0.3-15.2 0.3-22.8z m0.1 56.4c10.5-2.5 21-4.9 31.5-7.4v26.3l-31.8 3.9 0.3-22.8z m0 56.5c10.5-2.2 21-4.4 31.5-6.7V770c-10.6 1-21.2 2.1-31.8 3.1l0.3-22.6z m0.1 56.4c10.5-2 20.9-3.9 31.4-5.9v26.1l-31.8 2.4c0.1-7.5 0.2-15 0.4-22.6z m0 56.5c10.5-1.7 20.9-3.4 31.4-5.2v26.1c-10.6 0.5-21.2 1.1-31.8 1.6 0.1-7.5 0.2-15 0.4-22.5z" /></svg>
