<?xml version="1.0" standalone="no"?><!DOCTYPE svg PUBLIC "-//W3C//DTD SVG 1.1//EN" "http://www.w3.org/Graphics/SVG/1.1/DTD/svg11.dtd"><svg t="1585017164059" class="icon" viewBox="0 0 1024 1024" version="1.1" xmlns="http://www.w3.org/2000/svg" p-id="9924" xmlns:xlink="http://www.w3.org/1999/xlink" width="200" height="200"><defs><style type="text/css"></style></defs><path d="M847.232 0l117.824 84.48 4.096 880h52.8l2.048 53.76h-262.144l-10.112-928-357.568 134.528-6.08 113.344 162.496-49.92 128 59.52 6.08 616.768h54.848l6.144 57.6H477.44L469.312 368.896l-365.76 101.76v551.424L4.032 1024 0 960.64l26.432-1.92L24.32 447.552l298.624-94.08 2.112-174.848L847.232 0zM146.304 514.88l262.08-65.28 8.128 86.4-264.128 78.72-6.08-99.84z m1.984 144.128l266.176-69.184 2.048 107.52-266.176 40.384-2.048-78.72z m2.048 142.08l254.016-46.08 6.08 103.744-258.048 24.96-2.048-82.56z m0 128.768l258.048-3.84 2.048 82.56-264.128 9.664 4.032-88.32z" p-id="9925"></path></svg>