<?xml version="1.0" standalone="no"?><!DOCTYPE svg PUBLIC "-//W3C//DTD SVG 1.1//EN" "http://www.w3.org/Graphics/SVG/1.1/DTD/svg11.dtd"><svg class="icon" width="200px" height="200.00px" viewBox="0 0 1024 1024" version="1.1" xmlns="http://www.w3.org/2000/svg"><path d="M827.52 474.88a183.04 183.04 0 0 0-117.12-323.84 35.2 35.2 0 0 0-19.84 7.04 231.68 231.68 0 0 0-362.24 0 27.52 27.52 0 0 0-14.08-3.84A183.04 183.04 0 0 0 128 339.84a179.84 179.84 0 0 0 64 139.52 296.96 296.96 0 0 0-192 276.48v24.32a32 32 0 0 0 32 32 32 32 0 0 0 32-32v-24.32a232.96 232.96 0 0 1 238.08-232.32h12.16a32.64 32.64 0 0 0 32-32 32 32 0 0 0-32-32 119.68 119.68 0 0 1-22.4-237.44A222.08 222.08 0 0 0 275.2 307.2a234.24 234.24 0 0 0 103.68 192 387.84 387.84 0 0 0-256 362.88V896a32 32 0 0 0 32 32A32 32 0 0 0 192 896v-32.64a320 320 0 0 1 320-320h15.36a320 320 0 0 1 320 320V896a32 32 0 0 0 32 32 32 32 0 0 0 32-32v-32.64a384 384 0 0 0-264.96-366.72 232.32 232.32 0 0 0 80-280.96 119.04 119.04 0 0 1-16 238.72 32 32 0 0 0 0 64h11.52a232.96 232.96 0 0 1 232.32 232.32v24.96a32.64 32.64 0 0 0 32 32 32 32 0 0 0 32-32v-24.96a295.68 295.68 0 0 0-190.72-275.84z m-320 0a171.52 171.52 0 1 1 174.08-167.68A171.52 171.52 0 0 1 512 478.08z"  /></svg>
