<?xml version="1.0" standalone="no"?><!DOCTYPE svg PUBLIC "-//W3C//DTD SVG 1.1//EN" "http://www.w3.org/Graphics/SVG/1.1/DTD/svg11.dtd"><svg class="icon" width="200px" height="162.80px" viewBox="0 0 1258 1024" version="1.1" xmlns="http://www.w3.org/2000/svg"><path d="M1037.897143 679.877486a37.098057 37.098057 0 0 0-52.253257 6.085485c-12.756114 16.091429-10.122971 39.497143 5.968457 52.253258 14.687086 11.644343 32.1536 29.549714 32.1536 48.274285 0 60.679314-184.905143 148.831086-474.7264 148.831086-289.850514 0-474.609371-88.005486-474.609372-148.860343 0-13.019429 8.192-27.0336 24.546743-41.720686a37.098057 37.098057 0 0 0 2.633143-52.516571 37.244343 37.244343 0 0 0-52.545828-2.633143C8.6016 726.162286 0 762.441143 0 786.578286c0 145.115429 282.916571 223.4368 549.156571 223.4368 266.269257 0 549.156571-78.321371 549.156572-223.4368-0.117029-26.916571-10.532571-67.086629-60.416-106.730057zM1148.928 0a93.096229 93.096229 0 0 0-93.037714 93.008457 93.096229 93.096229 0 0 0 93.037714 93.008457 93.096229 93.096229 0 0 0 93.008457-93.037714A93.096229 93.096229 0 0 0 1148.898743 0z m0 135.431314a42.364343 42.364343 0 0 1-42.276571-42.276571c0-23.288686 18.987886-42.276571 42.276571-42.276572s42.276571 18.987886 42.276571 42.276572-19.017143 42.276571-42.276571 42.276571z m-194.735543-13.312c-52.399543 0-92.891429 22.176914-121.563428 67.759543-27.4432 43.008-41.1648 101.054171-41.1648 173.962972 0 72.9088 13.7216 130.984229 41.1648 173.962971 28.672 44.909714 69.163886 67.7888 121.563428 67.7888 51.697371 0 92.16-22.879086 121.534172-67.7888 27.4432-42.978743 41.1648-101.054171 41.1648-173.962971 0-72.9088-13.7216-130.984229-41.1648-173.962972-29.257143-45.582629-69.719771-67.759543-121.534172-67.759543z m74.839772 357.054172c-14.979657 41.018514-39.936 61.966629-74.722743 61.966628-35.488914 0-60.416-20.801829-74.693486-61.966628-9.976686-28.672-14.979657-67.086629-14.979657-115.331657 0-48.917943 4.973714-87.332571 14.979657-115.331658 14.277486-41.720686 39.204571-61.937371 74.693486-61.937371 34.933029 0 59.889371 20.216686 74.722743 61.937371 9.947429 27.999086 14.9504 66.413714 14.9504 115.331658 0 48.245029-4.973714 86.6304-14.9504 115.331657z m-465.3056 126.390857c44.207543 0 81.627429-15.652571 111.586742-45.582629 29.930057-29.930057 45.436343-68.461714 45.436343-115.331657 0-45.582629-13.019429-83.441371-39.204571-112.669257-26.2144-29.403429-61.147429-43.680914-104.6528-43.680914-22.469486 0-42.422857 3.8912-59.889372 13.048685-18.724571 9.128229-34.230857 22.849829-46.6944 42.422858h-3.218285v-5.851429c0-42.949486 8.045714-78.848 25.512228-107.549257 17.466514-30.632229 41.1648-45.611886 70.977829-45.611886 42.422857 0 68.461714 21.504 77.2096 64.453486h70.977828c-11.234743-84.670171-60.445257-127.093029-147.631542-127.093029-51.697371 0-92.862171 23.405714-122.821486 70.421943-30.485943 46.811429-45.436343 108.105143-45.436343 184.32 0 70.977829 13.7216 126.420114 42.422857 166.765714 28.818286 41.1648 70.509714 61.966629 125.425372 61.966629z m-65.974858-229.376c14.9504-17.6128 36.161829-26.038857 63.605029-26.038857 26.770286 0 47.981714 8.426057 64.190171 26.038857 14.9504 16.910629 22.996114 39.789714 22.996115 68.461714 0 28.672-8.045714 52.136229-24.254172 70.421943-16.208457 18.285714-36.717714 27.296914-62.902857 27.296914-25.512229 0-46.167771-8.455314-62.405486-25.365943-16.208457-16.910629-24.254171-40.316343-24.254171-69.719771-0.146286-29.930057 7.343543-54.037943 23.025371-71.094857zM163.254857 541.140114c-25.512229 0-46.167771-7.7824-61.674057-22.879085-17.466514-16.384-26.2144-39.789714-27.4432-69.719772H0c3.744914 52.106971 21.211429 92.452571 52.370286 119.895772 28.028343 24.810057 65.448229 37.156571 111.616 37.156571 48.625371 0 87.8592-14.277486 117.818514-42.422857 28.672-27.296914 42.949486-62.522514 42.949486-105.472 0-27.326171-7.489829-50.176-22.440229-67.7888-13.750857-16.910629-34.230857-29.403429-60.445257-37.858743 49.210514-16.910629 74.166857-50.848914 74.166857-101.5808 0-40.3456-13.750857-71.68-40.491886-94.529829-27.4432-22.879086-64.160914-33.821257-109.070628-33.821257-43.651657 0-79.696457 12.317257-107.841829 38.385372C28.701257 186.543543 12.463543 223.0272 8.718629 270.043429h71.68c2.486857-27.999086 11.234743-48.9472 26.185142-62.522515 14.277486-13.7216 34.230857-20.245943 60.445258-20.245943 25.512229 0 44.909714 5.851429 57.929142 17.6128 11.790629 11.790629 18.0224 28.672 18.0224 51.434058 0 22.849829-6.787657 40.316343-19.953371 52.106971-13.750857 11.790629-33.674971 17.6128-59.889371 17.6128H131.949714v57.373257h31.188115c28.672 0 50.468571 5.851429 65.418971 18.8416 14.979657 12.346514 23.025371 31.890286 23.025371 58.631314 0 22.176914-7.489829 40.374857-21.767314 55.471543-16.091429 16.354743-38.531657 24.810057-66.530743 24.810057z" /></svg>
