<?xml version="1.0" standalone="no"?><!DOCTYPE svg PUBLIC "-//W3C//DTD SVG 1.1//EN" "http://www.w3.org/Graphics/SVG/1.1/DTD/svg11.dtd"><svg class="icon" width="200px" height="200.00px" viewBox="0 0 1024 1024" version="1.1" xmlns="http://www.w3.org/2000/svg"><path d="M925.44 632.32s-5.12 204.8-217.6 244.48l-11.52-37.12s188.16-55.04 188.16-208.64L819.2 640l74.24-144.64 96 130.56-64 6.4zM431.36 136.96l35.84 55.04-162.56-2.56 75.52-143.36 34.56 55.04S601.6 16.64 729.6 188.16l-28.16 26.88S570.88 70.4 431.36 136.96zM158.72 856.32l21.76-61.44S0 698.88 57.6 491.52l38.4 5.12s-34.56 193.28 103.68 261.12l21.76-61.44 97.28 130.56-160 29.44z" /><path d="M486.4 563.2c42.24 0 76.8 34.56 76.8 76.8v25.6c0 42.24-34.56 76.8-76.8 76.8s-76.8-34.56-76.8-76.8v-25.6c0-42.24 34.56-76.8 76.8-76.8zM294.4 934.4s166.4 147.2 384 0c0 0-58.88-166.4-192-166.4S294.4 934.4 294.4 934.4z"/><path d="M832 25.6c42.24 0 76.8 34.56 76.8 76.8v25.6c0 42.24-34.56 76.8-76.8 76.8s-76.8-34.56-76.8-76.8V102.4c0-42.24 34.56-76.8 76.8-76.8zM640 396.8s166.4 147.2 384 0c0 0-58.88-166.4-192-166.4S640 396.8 640 396.8zM192 25.6c42.24 0 76.8 34.56 76.8 76.8v25.6c0 42.24-34.56 76.8-76.8 76.8s-76.8-34.56-76.8-76.8V102.4c0-42.24 34.56-76.8 76.8-76.8zM0 396.8s166.4 147.2 384 0c0 0-58.88-166.4-192-166.4S0 396.8 0 396.8z" /></svg>
