<?xml version="1.0" standalone="no"?><!DOCTYPE svg PUBLIC "-//W3C//DTD SVG 1.1//EN" "http://www.w3.org/Graphics/SVG/1.1/DTD/svg11.dtd"><svg class="icon" width="200px" height="200.00px" viewBox="0 0 1024 1024" version="1.1" xmlns="http://www.w3.org/2000/svg"><path d="M447.851005 185.999577c10.36642-21.780317 32.273157-37.673086 56.27485-40.490441 29.528042-4.244092 60.356402 12.064056 73.793016 38.594144 11.811217 21.978977 11.377778 49.827443-0.812698 71.553581-8.361764 15.043951-22.177637 26.782928-38.160706 33.067795 57.539048 110.274145 114.861376 220.692769 172.526843 330.912734 64.763034-50.658201 129.471887-101.388642 194.198801-152.064903-14.610511-11.991817-24.904691-29.383563-27.252487-48.238166-3.124374-21.581658 3.792593-44.391393 18.565644-60.446702 9.625961-10.691499 22.484656-18.439224 36.481129-21.816437 21.997037-5.580529 46.468289-0.03612 63.841975 14.592451 15.11619 12.244656 24.471252 30.75612 26.692628 49.989983v12.985114c-1.553157 23.839153-15.53157 46.377989-36.264409 58.297566-16.524868 9.914921-36.950688 12.497496-55.588572 7.910265-19.522822 90.065044-38.937284 180.166208-58.387866 270.231252-2.149136 10.854039-5.20127 21.545538-6.393227 32.580176-1.173898 10.727619-7.079506 20.26328-14.159012 28.137425-13.635273 14.809171-31.406279 24.976931-49.412064 33.537355-32.381517 14.899471-66.948289 24.453192-101.749841 31.713298-50.387302 10.34836-101.749841 15.45933-153.112381 17.229206-79.229065 2.365855-159.072169-2.727055-236.603598-19.884021-40.580741-9.499541-81.522681-21.527478-116.884092-44.246913-13.833933-9.210582-27.270547-20.71478-33.681834-36.481129-2.654815-5.941728-2.492275-12.569735-3.756473-18.836543-20.931499-98.011429-42.025538-195.986737-62.902857-293.998166-22.827795 5.670829-48.274286 0.469559-66.22589-14.953651-16.868007-13.996473-26.927407-35.84903-26.241129-57.791887-0.07224-23.911393 12.443316-47.425467 32.381517-60.627302 26.331429-18.511464 64.889453-16.127549 88.710546 5.52635 18.096085 15.639929 27.613686 40.436261 24.832452 64.167054-1.914356 19.649242-12.280776 38.070406-27.595626 50.441482 64.853333 50.622081 129.526067 101.460882 194.36134 152.082963 57.466808-110.328325 114.897496-220.674709 172.400423-330.984974-18.764303-7.242046-34.386173-22.231817-41.917178-40.92388-8.108924-19.631182-7.494885-42.747937 2.040776-61.765079z"  /></svg>
