<?xml version="1.0" standalone="no"?><!DOCTYPE svg PUBLIC "-//W3C//DTD SVG 1.1//EN" "http://www.w3.org/Graphics/SVG/1.1/DTD/svg11.dtd"><svg t="1585042799926" class="icon" viewBox="0 0 1024 1024" version="1.1" xmlns="http://www.w3.org/2000/svg" p-id="1809" xmlns:xlink="http://www.w3.org/1999/xlink" width="200" height="200"><defs><style type="text/css"></style></defs><path d="M512 63.280232c-197.505259 0-357.614817 160.109558-357.614817 357.614817 0 79.842443 26.169009 153.570631 70.393233 213.084073l-0.212848 0.001023 1.315972 1.477654c12.033058 16.019859 25.379017 30.996968 39.880289 44.769646l246.237147 276.42775 239.826134-270.486434c72.337515-65.438385 117.78766-160.047136 117.78766-265.274736C869.614817 223.38979 709.505259 63.280232 512 63.280232zM512 556.50461c-74.417897 0-134.744867-60.32697-134.744867-134.744867s60.32697-134.744867 134.744867-134.744867 134.744867 60.32697 134.744867 134.744867S586.416873 556.50461 512 556.50461z" p-id="1810"></path></svg>
