<?xml version="1.0" standalone="no"?><!DOCTYPE svg PUBLIC "-//W3C//DTD SVG 1.1//EN" "http://www.w3.org/Graphics/SVG/1.1/DTD/svg11.dtd"><svg class="icon" width="200px" height="198.64px" viewBox="0 0 1031 1024" version="1.1" xmlns="http://www.w3.org/2000/svg"><path d="M406.556336 881.384201A431.344965 431.344965 0 0 0 268.148681 840.722952l4.661491-34.888728a39.11547 39.11547 0 0 0 18.887495-26.217872c1.328404-10.663464 2.668885-22.220582 3.779914-32.449295a8.453482 8.453482 0 0 0 5.555145 3.115712 9.33506 9.33506 0 0 0 10.216637-8.453482l5.108319-49.778933a9.33506 9.33506 0 0 0-8.224031-10.216637 8.670857 8.670857 0 0 0-5.33777 1.111029c1.111029-9.552435 2.004683-18.887494 3.333087-28.439929 0-12.885522 6.88355-47.556875-17.55909-69.777457a116.005928 116.005928 0 0 0-148.008396 0c-24.454716 22.208505-18.235369 56.879858-17.329638 69.813686l3.333087 28.439929a8.888233 8.888233 0 0 0-5.33777-1.111029 9.33506 9.33506 0 0 0-8.224031 10.216637l4.830562 49.778934a9.552435 9.552435 0 0 0 10.216637 8.453482 8.888233 8.888233 0 0 0 5.33777-2.668885c1.111029 10.868763 2.415281 22.220582 3.550462 32.449295a39.332845 39.332845 0 0 0 18.670119 25.78312l4.661492 34.888729a434.895427 434.895427 0 0 0-137.948752 40.395568A47.556875 47.556875 0 0 0 0.052533 923.615383c1.557856 17.55909 3.333087 35.106104 5.108318 52.447818a38.886018 38.886018 0 0 0 28.439929 33.113497 1111.149846 1111.149846 0 0 0 361.784883 0 39.779672 39.779672 0 0 0 28.548617-33.113497c1.557856-17.329638 3.333087-34.888728 4.830561-52.447818a47.3395 47.3395 0 0 0-22.220581-42.267411z m602.020769 0a430.01656 430.01656 0 0 0-138.226509-40.673325c1.557856-11.774493 3.115712-22.220582 4.830561-34.888729a40.673326 40.673326 0 0 0 18.887494-26.217871c1.111029-10.663464 2.415281-22.220582 3.550463-32.449295a8.453482 8.453482 0 0 0 5.77252 3.115712 9.105608 9.105608 0 0 0 9.999262-8.453482l5.108319-49.778934a9.33506 9.33506 0 0 0-8.224031-10.216637 8.888233 8.888233 0 0 0-5.33777 1.11103l3.333087-28.43993c0-12.885522 7.113001-47.556875-17.329638-69.777457a116.223303 116.223303 0 0 0-148.225771 0c-24.44264 22.220582-18.223292 56.891935-17.329639 69.777457a206.699715 206.699715 0 0 0 3.333088 28.43993 9.33506 9.33506 0 0 0-5.555146-1.11103 9.105608 9.105608 0 0 0-7.994579 10.216637l5.108319 49.778934a9.33506 9.33506 0 0 0 9.999262 8.453482 7.777204 7.777204 0 0 0 5.555145-3.115712c1.328404 10.868763 2.415281 22.220582 3.779914 32.449295a40.443874 40.443874 0 0 0 18.887495 25.783121c1.557856 11.557118 3.115712 22.220582 4.830561 34.888728a434.907503 434.907503 0 0 0-138.323121 40.443874 48.667904 48.667904 0 0 0-22.220582 42.448557l5.337771 52.447818a38.886018 38.886018 0 0 0 28.222554 33.113497 1111.149846 1111.149846 0 0 0 361.784883 0A39.11547 39.11547 0 0 0 1026.546793 975.616374c1.775231-17.329638 3.333087-34.888728 5.108318-52.447818a47.097972 47.097972 0 0 0-23.114235-41.784355z m-301.12511-555.514541a435.789081 435.789081 0 0 0-138.22651-40.673325l4.661492-34.888729a38.64449 38.64449 0 0 0 18.887494-26.217871c1.328404-10.868763 2.668885-22.220582 3.779914-32.219843a9.552435 9.552435 0 0 0 5.772521 2.88626 9.33506 9.33506 0 0 0 9.999262-8.453482l5.108318-51.107338a9.552435 9.552435 0 0 0-8.22403-10.216637 8.888233 8.888233 0 0 0-5.33777 0c0-9.552435 2.222058-18.887494 3.115712-28.439929 0-12.885522 7.330377-47.556875-17.112263-69.777457a116.223303 116.223303 0 0 0-148.225772 0c-24.225265 22.220582-18.005917 56.891935-17.329638 69.777457 1.111029 9.552435 2.415281 18.887494 3.333087 28.439929a8.670857 8.670857 0 0 0-5.33777 0 9.33506 9.33506 0 0 0-8.22403 10.216637l4.830561 49.778934a9.274678 9.274678 0 0 0 16.001234 5.555145c1.111029 10.663464 2.222058 22.220582 3.550462 32.219843a39.332845 39.332845 0 0 0 18.887495 25.783121l4.661491 34.888728a435.789081 435.789081 0 0 0-138.226509 40.673326 47.3395 47.3395 0 0 0-22.220582 42.448557c1.557856 17.55909 3.333087 35.11818 5.108319 52.447818a38.886018 38.886018 0 0 0 28.222554 33.113497 1111.137769 1111.137769 0 0 0 361.784883 0 39.11547 39.11547 0 0 0 28.548617-33.173879c1.775231-17.329638 3.550463-34.888728 5.108318-52.447818a48.003702 48.003702 0 0 0-22.945166-41.784355z m-48.221078 424.401033l-117.334332-69.33063v-138.878635a26.217871 26.217871 0 1 0-52.447818 0v138.66126l-117.14111 69.560081a26.89415 26.89415 0 0 0-9.552435 36.66396 26.000496 26.000496 0 0 0 22.220582 13.561801 24.889467 24.889467 0 0 0 12.885522-3.779914l117.334332-69.33063 117.334332 69.33063a26.217871 26.217871 0 0 0 13.114974 3.779914 25.783121 25.783121 0 0 0 22.220582-13.561801 27.3289 27.3289 0 0 0-8.670858-36.66396z" /></svg>
