<?xml version="1.0" standalone="no"?><!DOCTYPE svg PUBLIC "-//W3C//DTD SVG 1.1//EN" "http://www.w3.org/Graphics/SVG/1.1/DTD/svg11.dtd"><svg class="icon" width="200px" height="141.44px" viewBox="0 0 1448 1024" version="1.1" xmlns="http://www.w3.org/2000/svg"><path d="M416.581542 323.413232l222.947143 68.355862-19.947262 65.071861-222.947143-68.355862 19.947262-65.071861z m614.229718-168.82195l49.503267 49.503266-185.606842 185.606842-49.381637-49.503267 185.485212-185.606841z m-107.763867 676.868986l-66.653047 21.285189-69.207269-216.744032 66.653047-21.285188 69.207269 216.744031z"  /><path d="M1016.702221 891.423685c0 61.787861-49.989785 111.777646-111.777646 111.777645-61.666231 0-111.777646-50.111415-111.777645-111.777645 0-61.787861 49.989785-111.777646 111.777645-111.777646 61.666231-0.12163 111.777646 49.989785 111.777646 111.777646zM904.924575 935.088728c24.325929 0 43.786673-19.460744 43.786673-43.786673s-19.460744-43.786673-43.786673-43.786673-43.786673 19.460744-43.786673 43.786673 19.460744 43.786673 43.786673 43.786673z m266.733817-714.087659c-43.786673 43.786673-114.210239 43.786673-157.875282 0-43.786673-43.786673-43.786673-114.210239 0-157.996912s114.210239-43.786673 157.875282 0c43.786673 43.665043 43.786673 114.210239 0 157.996912z m-78.694382-35.515857c24.325929 0 43.786673-19.460744 43.786673-43.786673s-19.460744-43.786673-43.786673-43.786673-43.786673 19.460744-43.786673 43.786673 19.460744 43.786673 43.786673 43.786673zM454.894881 333.751752c0 61.787861-49.989785 111.777646-111.777646 111.777646-61.666231 0-111.777646-50.111415-111.777646-111.777646 0-61.787861 49.989785-111.777646 111.777646-111.777646s111.777646 49.989785 111.777646 111.777646z m-111.656017 43.786673c24.325929 0 43.786673-19.460744 43.786673-43.786673s-19.460744-43.786673-43.786673-43.786673-43.786673 19.460744-43.786673 43.786673 19.460744 43.786673 43.786673 43.786673z m223.676922 105.452904c0-107.763867 87.086827-194.972325 194.607435-194.972324s194.607436 87.208457 194.607436 194.972324-87.086827 194.972325-194.607436 194.972325-194.607436-87.208457-194.607435-194.972325z m194.607435 126.373204c69.937047 0 126.373203-56.436156 126.373204-126.373204 0-70.058677-56.314527-126.373203-126.373204-126.373203-69.937047 0-126.373203 56.436156-126.373203 126.373203 0.12163 70.058677 56.436156 126.373203 126.373203 126.373204z"  /></svg>
