<?xml version="1.0" standalone="no"?><!DOCTYPE svg PUBLIC "-//W3C//DTD SVG 1.1//EN" "http://www.w3.org/Graphics/SVG/1.1/DTD/svg11.dtd"><svg class="icon" width="200px" height="200.00px" viewBox="0 0 1024 1024" version="1.1" xmlns="http://www.w3.org/2000/svg"><path d="M272.170667 606.464L512 743.168l239.829333-136.704h3.754667v280.832L512 1024l-243.584-136.704V606.464h3.754667z m55.914666-34.432l184.32-104.021333 184.32 104.021333-184.32 104.021333-184.32-104.021333zM1024 141.162667v278.570666l-236.970667 137.450667V274.858667l-244.565333-137.386667L779.52 0 1024 141.162667zM725.76 526.933333l-191.253333-108.16V198.826667l191.232 108.117333V526.933333h0.021333zM489.472 198.826667v219.946666L298.24 526.933333V306.944l191.232-108.117333z m-12.288-61.504l-240.426667 137.365333v282.090667L0 419.392V141.077333L244.138667 0 477.226667 137.322667h-0.021334z"  /></svg>
