<?xml version="1.0" standalone="no"?><!DOCTYPE svg PUBLIC "-//W3C//DTD SVG 1.1//EN" "http://www.w3.org/Graphics/SVG/1.1/DTD/svg11.dtd"><svg t="1586883443883" class="icon" viewBox="0 0 1024 1024" version="1.1" xmlns="http://www.w3.org/2000/svg" p-id="8589" xmlns:xlink="http://www.w3.org/1999/xlink" width="200" height="200"><defs><style type="text/css"></style></defs><path d="M231.901774 336.676671L500.125512 181.609823c6.984993-4.190996 16.763984-4.190996 23.748976 0l268.223738 155.066848c6.984993 4.190996 12.572988 12.572988 12.572988 20.95498v310.133697c0 8.381992-4.190996 16.763984-12.572988 20.954979L523.874488 843.787176c-6.984993 4.190996-16.763984 4.190996-23.748976 0L231.901774 688.720327c-6.984993-4.190996-12.572988-12.572988-12.572988-20.954979V357.631651c0-9.77899 4.190996-16.763984 12.572988-20.95498z m39.115961 32.130969c-1.396999 1.396999-2.793997 2.793997-2.793997 5.587994v275.208732c0 2.793997 1.396999 4.190996 2.793997 5.587994l238.886767 138.302865c1.396999 1.396999 4.190996 1.396999 5.587995 0L754.379263 655.19236c1.396999-1.396999 2.793997-2.793997 2.793998-5.587994V374.395634c0-2.793997-1.396999-4.190996-2.793998-5.587994l-238.886766-138.302865c-1.396999-1.396999-4.190996-1.396999-5.587995 0l-238.886767 138.302865z m240.283766 118.744884L698.499318 379.983629c11.175989-6.984993 26.542974-2.793997 33.527967 8.381992s2.793997 26.542974-8.381992 33.527967l-185.800818 107.568895v212.343793c0 13.969986-11.175989 23.748977-23.748977 23.748976-13.969986 0-23.748977-11.175989-23.748977-23.748976V529.462483l-185.800818-107.568895c-11.175989-6.984993-15.366985-20.95498-8.381992-33.527967 6.984993-11.175989 20.95498-15.366985 33.527967-8.381992-2.793997 0 181.609823 107.568895 181.609823 107.568895z" fill="#999999" p-id="8590"></path></svg>