<?xml version="1.0" standalone="no"?><!DOCTYPE svg PUBLIC "-//W3C//DTD SVG 1.1//EN" "http://www.w3.org/Graphics/SVG/1.1/DTD/svg11.dtd"><svg class="icon" width="200px" height="187.20px" viewBox="0 0 1094 1024" version="1.1" xmlns="http://www.w3.org/2000/svg"><path d="M705.949 822.568c0-13.097-8.731-23.698-19.333-23.698H408.477c-10.601 0-19.332 10.601-19.332 23.698v104.146H189.583v59.868h714.68v-59.868H705.95V822.568M1022.13 37.418H71.716C32.43 37.418 0 69.223 0 107.888V739c0 39.289 31.181 70.47 71.717 70.47h951.036c39.288 0 71.717-31.181 71.717-70.47V107.888c-0.623-38.665-33.052-70.47-72.34-70.47z m21.826 699.712c0 13.097-10.602 23.698-23.698 23.698H73.588c-13.096 0-23.698-10.601-23.698-23.698V109.135c0-13.096 10.602-23.698 23.698-23.698h946.67c13.096 0 23.698 10.602 23.698 23.698V737.13zM656.058 591.201l76.083-130.339 21.827 13.097L659.8 633.608 482.066 584.34l7.483-23.698 144.059 39.289-73.589-177.735-190.83-26.192 74.835 129.091-21.827 13.72-91.673-160.896 130.962-129.092 17.462 18.71L373.554 371.06l190.83 26.192 116.62-151.542H531.956v-26.192h185.218l46.149 177.734-24.945 6.236-36.795-144.058-117.866 151.542z" /></svg>
