<?xml version="1.0" standalone="no"?><!DOCTYPE svg PUBLIC "-//W3C//DTD SVG 1.1//EN" "http://www.w3.org/Graphics/SVG/1.1/DTD/svg11.dtd"><svg class="icon" width="200px" height="200.00px" viewBox="0 0 1024 1024" version="1.1" xmlns="http://www.w3.org/2000/svg"><path d="M81.6 741.7h102.7c9.7 0 17.6 7.9 17.6 17.6V931c0 9.7-7.9 17.6-17.6 17.6H81.6c-9.7 0-17.6-7.9-17.6-17.6V759.3c0-9.7 7.9-17.6 17.6-17.6z m252.7-183.8H437c9.7 0 17.6 7.9 17.6 17.6V931c0 9.7-7.9 17.6-17.6 17.6H334.3c-9.7 0-17.6-7.9-17.6-17.6V575.5c0-9.7 7.9-17.6 17.6-17.6zM587 672.8h102.7c9.7 0 17.6 7.9 17.6 17.6V931c0 9.7-7.9 17.6-17.6 17.6H587c-9.7 0-17.6-7.9-17.6-17.6V690.4c0-9.7 7.9-17.6 17.6-17.6z m252.7-252.7h102.7c9.7 0 17.6 7.9 17.6 17.6V931c0 9.7-7.9 17.6-17.6 17.6H839.7c-9.7 0-17.6-7.9-17.6-17.6V437.7c0.1-9.7 7.9-17.6 17.6-17.6z m-79.5-314.6l45.3 45.3c7 7 6.8 18.5-0.5 25.3L626.6 340.8c-6.4 5.9-16.2 6.2-23 0.7L374.5 154.1c-6.8-5.5-16.6-5.2-23 0.7L69.6 414.9c-3.6 3.3-5.6 8-5.6 12.9v90.1c0 15.3 18.2 23.3 29.5 12.9l258-238.1c6.4-5.9 16.2-6.2 23-0.7l229.1 187.4c6.8 5.5 16.6 5.2 23-0.7l251.2-231.9c6.9-6.4 17.7-6.2 24.3 0.5l27.9 27.9c11.1 11.1 30 3.2 30-12.4V93c0-9.7-7.9-17.6-17.6-17.6H772.6c-15.6 0.1-23.4 19-12.4 30.1z m-29.9-30" /></svg>
