<?xml version="1.0" standalone="no"?><!DOCTYPE svg PUBLIC "-//W3C//DTD SVG 1.1//EN" "http://www.w3.org/Graphics/SVG/1.1/DTD/svg11.dtd"><svg t="1585296007914" class="icon" viewBox="0 0 1024 1024" version="1.1" xmlns="http://www.w3.org/2000/svg" p-id="16884" xmlns:xlink="http://www.w3.org/1999/xlink" width="200" height="200"><defs><style type="text/css"></style></defs><path d="M118.153846 118.153846v748.307692h393.846154v-94.523076H212.676923V212.676923h598.646154v299.323077h94.523077V118.153846z" fill="#999999" p-id="16885"></path><path d="M283.569231 334.769231h452.923077v55.138461H283.569231zM283.569231 464.738462h452.923077v55.138461H283.569231zM283.569231 594.707692h228.430769v55.138462H283.569231zM859.372308 636.849231c-14.572308-14.572308-31.113846-25.6-50.018462-33.870769-19.298462-8.270769-40.172308-12.209231-61.44-12.209231s-41.747692 4.332308-61.44 12.209231c-18.904615 7.876923-35.446154 19.298462-50.018461 33.870769-14.572308 14.572308-25.6 31.113846-33.87077 50.018461-8.270769 19.298462-12.209231 40.172308-12.20923 61.44s4.332308 41.747692 12.20923 61.44c7.089231 16.935385 16.935385 32.295385 29.538462 45.686154 1.181538 1.575385 2.756923 2.756923 3.938461 4.332308 9.058462 9.058462 18.510769 16.541538 29.144616 23.236923 6.695385 3.938462 13.390769 7.483077 20.873846 10.633846 19.298462 8.270769 40.172308 12.209231 61.44 12.209231s41.747692-4.332308 61.44-12.209231c7.089231-3.150769 14.178462-6.695385 20.873846-10.633846 10.633846-6.301538 20.48-14.178462 29.144616-23.236923 1.575385-1.575385 2.756923-2.756923 3.938461-4.332308 12.603077-13.390769 22.449231-28.750769 29.538462-45.686154 8.270769-19.298462 12.209231-40.172308 12.20923-61.44s-4.332308-41.747692-12.20923-61.44c-7.089231-18.904615-18.510769-35.446154-33.083077-50.018461z m-111.064616 232.369231c-27.569231 0-53.169231-9.452308-73.255384-24.812308 13.390769-26.781538 41.353846-45.292308 73.255384-45.292308s59.864615 18.510769 73.255385 45.292308c-20.48 15.753846-45.686154 24.812308-73.255385 24.812308z m-27.56923-134.695385c0-15.36 12.603077-27.963077 27.963076-27.963077 15.36 0 27.963077 12.603077 27.963077 27.963077 0 15.36-12.603077 27.963077-27.963077 27.963077s-27.963077-12.603077-27.963076-27.963077z m126.818461 82.707692c-4.726154-7.089231-9.846154-13.784615-15.753846-19.692307-9.452308-9.452308-20.48-17.329231-32.689231-23.236924 8.664615-11.027692 13.784615-24.812308 13.784616-39.778461 0-35.446154-28.750769-64.196923-64.196924-64.196923s-64.196923 28.750769-64.196923 64.196923c0 14.966154 5.12 28.356923 13.39077 39.384615-12.603077 5.907692-23.630769 13.784615-33.476923 23.63077-5.907692 5.907692-11.421538 12.603077-15.753847 19.692307-13.784615-19.692308-21.661538-43.323077-21.661538-68.923077 0-66.953846 54.350769-121.304615 121.304615-121.304615s121.304615 54.350769 121.304616 121.304615c-0.393846 25.6-8.270769 49.230769-22.055385 68.923077z" fill="#999999" p-id="16886"></path></svg>