<?xml version="1.0" standalone="no"?><!DOCTYPE svg PUBLIC "-//W3C//DTD SVG 1.1//EN" "http://www.w3.org/Graphics/SVG/1.1/DTD/svg11.dtd"><svg class="icon" width="200px" height="200.00px" viewBox="0 0 1024 1024" version="1.1" xmlns="http://www.w3.org/2000/svg"><path d="M968.8064 891.835733h-126.839467c-19.694933-46.865067-71.850667-71.8848-86.9376-78.301866l-183.159466-83.968c59.665067-56.251733 92.228267-134.7584 92.228266-223.8464V340.206933c0-96.597333-130.286933-219.272533-276.718933-219.272533l-3.413333 0.170667C426.120533 55.330133 516.676267 0 606.071467 0c121.890133 0 243.370667 102.741333 243.370666 195.003733v139.400534c0 66.935467-20.7872 186.368-97.245866 247.1936l216.576 116.4288S1024 720.759467 1024 753.322667v83.1488a55.296 55.296 0 0 1-55.1936 55.364266zM598.801067 340.3776v165.4784c0 61.44-18.773333 134.5536-85.8112 187.8016a78.574933 78.574933 0 0 0-29.354667 67.9936l245.4528 112.5376s55.261867 22.766933 55.261867 55.296v39.1168A55.296 55.296 0 0 1 729.156267 1024H55.057067c-14.609067 0-28.637867-5.870933-38.980267-16.349867A55.978667 55.978667 0 0 1 0 968.226133v-39.697066c0-30.8224 55.1936-55.637333 55.1936-55.637334l238.045867-107.895466c0.170667-1.160533 0.580267-2.184533 0.750933-3.345067a78.9504 78.9504 0 0 0-28.7744-68.164267c-65.092267-52.667733-92.910933-125.371733-92.910933-187.630933V340.309333c0-56.2176 105.0624-153.122133 215.074133-153.122133 112.093867 0 211.3536 95.6416 211.3536 153.156267l0.034133 0.034133z" /></svg>
