<?xml version="1.0" standalone="no"?><!DOCTYPE svg PUBLIC "-//W3C//DTD SVG 1.1//EN" "http://www.w3.org/Graphics/SVG/1.1/DTD/svg11.dtd"><svg t="1594747177947" class="icon" viewBox="0 0 1024 1024" version="1.1" xmlns="http://www.w3.org/2000/svg" p-id="906" xmlns:xlink="http://www.w3.org/1999/xlink" width="200" height="200"><defs><style type="text/css"></style></defs><path d="M403.52 655.34l-91.333 68.82a127.918 127.918 0 1 1-36.393-52.639l93.7-70.61A223.857 223.857 0 0 1 662.107 304.78l31.916-71.634a127.918 127.918 0 1 1 59.93 22.641l-36.777 82.507a223.41 223.41 0 0 1 81.164 172.498c0 55.772-20.339 106.748-54.045 145.89l99.2 122.547a127.918 127.918 0 1 1-50.016 39.846l-97.41-120.243c-34.985 22.641-76.75 35.817-121.586 35.817a223.345 223.345 0 0 1-170.962-79.31z" p-id="907"></path></svg>