<?xml version="1.0" standalone="no"?><!DOCTYPE svg PUBLIC "-//W3C//DTD SVG 1.1//EN" "http://www.w3.org/Graphics/SVG/1.1/DTD/svg11.dtd"><svg class="icon" width="200px" height="200.00px" viewBox="0 0 1024 1024" version="1.1" xmlns="http://www.w3.org/2000/svg"><path fill="#cdcdcd" d="M1020.12 496.74c-7.5-15.69-187.09-384.14-508.34-384.14-321.27 0-500.83 368.45-508.32 384.14-4.23 8.87-4.23 19.32 0 28.2 7.49 15.69 187.05 384.13 508.32 384.13 321.25 0 500.84-368.45 508.34-384.13 4.22-8.87 4.22-19.33 0-28.2z m-508.34 349.3c-250.69 0-411.83-269.85-447.17-335.21 35.35-65.36 196.48-335.19 447.17-335.19 250.7 0 411.84 269.83 447.19 335.19-35.35 65.37-196.49 335.21-447.19 335.21z m133.68-548.16c-9.22-9.64-24.11-9.64-33.32 0L511.26 403.57 411.04 298.58c-9.13-9.55-23.9-9.55-33.04 0-9.1 9.57-9.1 25.05 0 34.59l99.66 104.36h-82.33c-12.89 0-23.35 10.93-23.35 24.46 0 13.52 10.46 24.46 23.35 24.46h93.39v73.36h-93.39c-12.89 0-23.35 10.93-23.35 24.45 0 13.53 10.46 24.46 23.35 24.46h93.39v97.82c0 13.52 10.46 24.46 23.35 24.46s23.34-10.94 23.34-24.46v-97.82h93.4c12.88 0 23.34-10.93 23.34-24.46 0-13.52-10.46-24.45-23.34-24.45h-93.4v-73.36h93.4c12.88 0 23.34-10.95 23.34-24.46 0-13.53-10.46-24.46-23.34-24.46h-83.36l100-104.73c9.22-9.67 9.22-25.26 0.01-34.92z"  /></svg>