<?xml version="1.0" standalone="no"?><!DOCTYPE svg PUBLIC "-//W3C//DTD SVG 1.1//EN" "http://www.w3.org/Graphics/SVG/1.1/DTD/svg11.dtd"><svg class="icon" width="200px" height="199.80px" viewBox="0 0 1025 1024" version="1.1" xmlns="http://www.w3.org/2000/svg"><path d="M538.299648 451.072l-12.544 12.032a25.6 25.6 0 0 0 13.824 4.096 25.6 25.6 0 0 0 25.6-25.6A25.6 25.6 0 0 0 563.899648 435.2l-16.64 7.424-5.888-13.056 14.336-6.4a25.6 25.6 0 0 0-15.872-6.144 25.6 25.6 0 0 0-25.6 25.6 28.416 28.416 0 0 0 2.048 11.008l12.032-11.52zM689.083648 378.624l-8.192 3.584a24.064 24.064 0 0 0 20.992 10.752 25.6 25.6 0 1 0-25.6-25.6l6.656-3.072z m12.8-25.6a14.08 14.08 0 0 1 0 28.16 13.312 13.312 0 0 1-14.08-14.08 14.08 14.08 0 0 1 14.08-14.08zM399.035648 564.992l7.168-6.912a25.6 25.6 0 0 0-11.52-2.816 25.6 25.6 0 0 0-25.6 25.6 24.064 24.064 0 0 0 25.6 25.6 25.6 25.6 0 0 0 21.76-38.144l-7.168 6.912z m-4.352 29.952a13.312 13.312 0 0 1-14.08-14.08 14.08 14.08 0 1 1 14.08 14.08zM282.299648 805.12c7.68 0 12.8-5.12 12.8-15.36v-35.84h481.28a12.8 12.8 0 0 0 0-25.6H294.843648V244.48a12.8 12.8 0 0 0-25.6 0v483.84H231.099648a12.032 12.032 0 0 0-12.8 12.8 13.824 13.824 0 0 0 12.8 12.8h38.4v38.4a12.032 12.032 0 0 0 12.8 12.8zM381.883648 669.44v33.28a12.032 12.032 0 0 0 12.8 12.8c7.68 0 12.8-5.12 12.8-15.36v-30.72a12.8 12.8 0 0 0-25.6 0zM540.603648 510.72a12.032 12.032 0 0 0-12.8 12.8v179.2a12.032 12.032 0 0 0 12.8 12.8c7.68 0 15.36-5.12 12.8-12.8v-179.2a12.032 12.032 0 0 0-12.8-12.8zM689.083648 441.6v263.68a12.032 12.032 0 0 0 12.8 12.8c7.68 0 12.8-7.68 12.8-17.92v-258.56a12.8 12.8 0 0 0-25.6 0zM896.699648 672c-12.8-10.24-30.72 10.24-17.92 20.48l53.76 48.64a356.608 356.608 0 0 1-76.8 110.08c-10.24 12.8 7.68 33.28 20.48 17.92a514.56 514.56 0 0 0 81.92-122.88c5.12-10.24 0-17.92-7.68-25.6zM1019.323648 433.92a495.104 495.104 0 0 0-202.24-335.36A535.552 535.552 0 0 0 435.899648 6.4 512 512 0 0 0 5.563648 587.52 495.104 495.104 0 0 0 207.803648 921.6a504.064 504.064 0 0 0 378.88 94.72 508.16 508.16 0 0 0 250.88-110.08c17.92-15.36 0-33.28-12.8-23.04a470.784 470.784 0 0 1-240.64 107.52 481.536 481.536 0 0 1-550.4-409.6 480 480 0 0 1 89.6-360.96 490.24 490.24 0 0 1 320-192 482.816 482.816 0 0 1 550.4 404.48l-74.24 10.24a31.744 31.744 0 0 0-20.48 15.36 25.6 25.6 0 0 0 5.12 25.6l81.92 97.28a20.48 20.48 0 0 0 35.84-10.24 503.552 503.552 0 0 0-2.56-136.96zM548.027648 441.6l16.64-7.424 116.224-51.968 8.192-3.584-5.888-13.312-6.656 3.072-120.064 53.504-14.336 6.4 5.888 13.312zM399.035648 564.992l10.24 10.24 7.168-6.912 110.336-105.216 12.544-12.032-10.24-9.984-12.032 11.264-110.848 105.728-7.168 6.912z" /></svg>
