<?xml version="1.0" standalone="no"?><!DOCTYPE svg PUBLIC "-//W3C//DTD SVG 1.1//EN" "http://www.w3.org/Graphics/SVG/1.1/DTD/svg11.dtd"><svg class="icon" width="200px" height="200.00px" viewBox="0 0 1024 1024" version="1.1" xmlns="http://www.w3.org/2000/svg"><path fill="#ffffff" d="M944.853333 476.202667c18.176-19.584 24.064-46.506667 15.829334-71.936s-28.885333-43.690667-55.082667-48.853334l-210.688-41.642666a21.632 21.632 0 0 1-14.677333-10.666667l-104.704-187.562667c-13.056-23.296-36.821333-37.248-63.530667-37.248s-50.474667 13.909333-63.488 37.290667L343.808 303.104a21.888 21.888 0 0 1-14.677333 10.666667l-210.730667 41.642666c-26.197333 5.205333-46.848 23.466667-55.082667 48.896s-2.346667 52.352 15.829334 71.936l146.005333 157.568a21.546667 21.546667 0 0 1 5.589333 17.194667l-25.514666 213.290667a71.893333 71.893333 0 0 0 29.482666 67.498666 72.106667 72.106667 0 0 0 73.258667 7.168l194.944-90.154666a21.632 21.632 0 0 1 18.090667 0l194.944 90.154666a71.850667 71.850667 0 0 0 73.258666-7.168 71.68 71.68 0 0 0 29.482667-67.498666l-25.514667-213.248a21.333333 21.333333 0 0 1 5.632-17.237334l146.048-157.610666z m-183.509333 122.752a72.618667 72.618667 0 0 0-18.901333 58.112l25.514666 213.290666a21.248 21.248 0 0 1-8.746666 20.010667 21.248 21.248 0 0 1-21.674667 2.133333l-194.944-90.154666a72.490667 72.490667 0 0 0-61.098667 0l-194.944 90.154666a21.162667 21.162667 0 0 1-21.674666-2.133333 21.248 21.248 0 0 1-8.746667-20.010667l25.514667-213.333333a72.704 72.704 0 0 0-18.858667-58.026667l-145.962667-157.525333a21.034667 21.034667 0 0 1-4.693333-21.333333 21.077333 21.077333 0 0 1 16.298667-14.464l210.688-41.642667c20.906667-4.181333 38.912-17.28 49.322666-35.968l104.704-187.562667c5.589333-9.898667 15.061333-11.008 18.858667-11.008s13.269333 1.066667 18.816 11.050667l104.704 187.562667c10.410667 18.688 28.416 31.744 49.408 35.882666l210.688 41.685334a21.12 21.12 0 0 1 16.298667 14.421333 21.248 21.248 0 0 1-4.693334 21.333333l-145.877333 157.525334z"  /></svg>