<?xml version="1.0" standalone="no"?><!DOCTYPE svg PUBLIC "-//W3C//DTD SVG 1.1//EN" "http://www.w3.org/Graphics/SVG/1.1/DTD/svg11.dtd">
<svg class="icon" width="200px" height="200.00px" viewBox="0 0 1024 1024" version="1.1" xmlns="http://www.w3.org/2000/svg">
  <path  d="M861.091 741.818c-25.266 0-48.692 7.863-67.979 21.266L615.978 635.155c17.139-30.368 26.931-65.434 26.931-102.791 0-6.662-0.325-13.248-0.934-19.751l181.394-107.16c27.985 17.007 64.962 13.432 89.148-10.754 28.402-28.402 28.402-74.45 0-102.852s-74.45-28.402-102.852 0c-20.925 20.925-26.413 51.423-16.505 77.391L631.704 464.62c-16.666-48.783-50.83-89.45-95.007-114.527l32.27-161.346c2.315 0.222 4.66 0.345 7.033 0.345 40.167 0 72.728-32.561 72.728-72.727 0-40.166-32.561-72.727-72.728-72.727-40.166 0-72.727 32.561-72.727 72.727 0 20.549 8.536 39.093 22.238 52.319l-32.562 162.813c-18.861-5.578-38.825-8.587-59.495-8.587-39.358 0-76.175 10.865-107.631 29.745l-100.443-88.39c18.128-35.992 12.191-81.003-17.861-111.055-37.491-37.49-98.274-37.49-135.765 0s-37.49 98.274 0 135.765c33.554 33.554 85.755 37.052 123.228 10.543l93.177 81.996C248.611 419.613 224 473.111 224 532.364c0 64.399 29.072 121.999 74.798 160.421l-82.787 88.324c-15.209-10.118-33.465-16.018-53.102-16.018-53.02 0-96 42.981-96 96s42.98 96 96 96 96-42.981 96-96c0-16.457-4.144-31.945-11.441-45.483l90.638-96.701c28.599 14.647 61.009 22.911 95.348 22.911 61.593 0 116.973-26.588 155.298-68.91l171.761 124.049c-11.834 18.52-18.695 40.526-18.695 64.134 0 65.872 53.4 119.273 119.272 119.273 65.873 0 119.273-53.4 119.273-119.273 0.001-65.873-53.4-119.273-119.272-119.273z" /></svg>
