<?xml version="1.0" standalone="no"?><!DOCTYPE svg PUBLIC "-//W3C//DTD SVG 1.1//EN" "http://www.w3.org/Graphics/SVG/1.1/DTD/svg11.dtd"><svg class="icon" width="200px" height="200.00px" viewBox="0 0 1024 1024" version="1.1" xmlns="http://www.w3.org/2000/svg"><path d="M751.4 810.7c-16.3 0-29.5-13.2-29.5-29.5s13.2-29.5 29.5-29.5h8.4c101 0 167.6-112.1 167.6-212.7 0-110.5-96.2-199.5-205.8-201.8l-21.3-0.5-6.3-20.3c-30.5-98.5-96.3-156.3-213.6-156.3-146.3 0-240.9 108.4-240.9 252.2l0.2 0.3 2.4 27.1-26.8 4.6C150 455.5 98 522.5 98 596.7c0 84 65.1 154.9 141 154.9h26.2c16.3 0 29.5 13.2 29.5 29.5s-13.2 29.5-29.5 29.5H239c-107.9 0-199.1-98-199.1-214 0-94.7 59.2-178.4 141.2-204.6 10.2-164.8 129.2-291 299.3-291 133.6 0 222.1 69.2 263.3 178.4C877.2 293.9 984 402.8 984 539c0 126.8-85.1 267.8-232.6 271.7zM511.6 859.5L606.3 755c8.2-8.6 21.6-8.6 29.8 0l7.4 5.9c8.2 8.6 8.2 18.9 0 27.5L534.4 908.1c-0.1 0.2-0.2 0.3-0.3 0.5l-7.5 7.8c-4.1 4.3-9.5 6.5-15 6.4-5.4 0-10.9-2.1-15-6.4l-7.5-7.8c-0.1-0.1-0.2-0.3-0.3-0.5L382.3 790.3c-8.3-8.6-8.3-22.6 0-31.2l7.4-4.1c8.2-8.6 21.6-6.8 29.9 1.8l92 102.7zM511.9 500c16.3 0 29.5 13.2 29.5 29.5v324.7c0 16.3-13.2 29.5-29.5 29.5s-29.5-13.2-29.5-29.5V529.5c0-16.3 13.2-29.5 29.5-29.5z" /></svg>
