<?xml version="1.0" standalone="no"?><!DOCTYPE svg PUBLIC "-//W3C//DTD SVG 1.1//EN" "http://www.w3.org/Graphics/SVG/1.1/DTD/svg11.dtd"><svg class="icon" width="200px" height="200.00px" viewBox="0 0 1024 1024" version="1.1" xmlns="http://www.w3.org/2000/svg"><path d="M448.982 559.82c34.818 0.263 68.185 5.172 99.091 13.973 6.65-14.62 23.797-26.621 38.882-34.827-9.525-3.218-19.285-6.101-29.232-8.669a244.194 244.194 0 0 0 36.662-24.438l33.761-32.817a244.386 244.386 0 0 0 58.459-158.653c0-135.374-110.17-245.543-245.604-245.543-135.369 0-245.515 110.169-245.515 245.543 0 94.479 53.637 176.661 132.043 217.715C193.355 569.146 97.205 667.289 96.121 782.775h-0.016v121.866c0 15.653 12.689 28.344 28.345 28.344 15.653 0 28.343-12.69 28.343-28.344V784.747c0-121.918 126.437-221.171 284.217-224.836 1.33 0.021 2.658 0.051 3.992 0.051a243.72 243.72 0 0 0 7.98-0.142zM242.561 314.388c0.119-109.555 88.893-198.339 198.44-198.478 109.581 0.104 198.397 88.896 198.54 198.478-0.141 109.584-88.95 198.382-198.54 198.505-109.563-0.141-198.339-88.939-198.44-198.505zM840.781 709.478c0-25.781-8.519-49.596-23.157-68.821a112.85 112.85 0 0 0-50.033-37.577l0.219-0.656-8.521-2.621c-6.555-1.969-13.548-3.278-20.536-3.934l-1.095-0.219h0.219a85.168 85.168 0 0 0-10.705-0.655h-0.656c-3.713 0-7.21 0.218-10.705 0.655l-1.09 0.219c-6.995 0.655-13.769 1.965-20.323 3.934l-8.303 2.401 0.221 0.657c-20.101 7.646-37.361 20.975-50.253 37.796-14.42 19.226-22.939 43.04-22.939 68.821 0 18.572 3.278 33.648 8.084 46.321 7.428 18.788 18.789 31.68 27.965 41.292 4.588 4.807 8.521 8.959 11.361 12.453 2.84 3.496 4.152 6.336 4.589 8.521 1.966 10.487 2.184 23.814 2.184 27.311v0.876c0 15.292 12.454 27.526 27.531 27.526h63.796c15.294 0 27.527-12.454 27.527-27.526v-0.876c0-3.277 0.221-16.606 2.188-27.311 0.216-1.53 0.87-3.059 2.185-5.243 2.184-3.497 6.334-8.084 11.357-13.326 7.648-8.084 17.48-18.135 25.128-32.555 8.301-14.42 13.762-33.211 13.762-57.463z m-46.45 36.049c-4.693 11.903-11.735 19.785-18.442 26.994-3.353 3.521-6.706 6.875-9.558 10.565-2.851 3.688-5.364 7.711-6.369 12.908-1.845 9.893-2.012 20.623-2.012 23.641v0.673a6.37 6.37 0 0 1-6.373 6.369h-49.124c-1.847 0-3.354-0.67-4.528-1.843-1.174-1.175-1.844-2.684-1.844-4.526v-0.673c0-3.018-0.168-13.748-2.012-23.641-0.672-3.353-2.013-6.371-3.689-9.053-3.018-4.696-6.707-8.553-10.563-12.743-5.869-6.204-12.071-12.743-16.934-21.798-4.862-9.053-8.383-20.622-8.383-37.054 0-16.429 5.531-31.688 14.755-43.76 9.221-12.239 22.3-21.462 37.221-25.819l1.844-0.504a64.051 64.051 0 0 1 11.066-2.011l0.671-0.169c2.179-0.168 4.358-0.335 6.537-0.335h0.672c2.179 0 4.358 0.167 6.539 0.335l0.67 0.169c3.857 0.336 7.546 1.173 11.066 2.011l1.842 0.504c15.092 4.526 28.003 13.748 37.224 25.819 9.222 12.072 14.588 27.331 14.588 43.76 0.335 12.578-1.845 22.302-4.864 30.181zM726.184 569.469h1.987c14.915 0 27.351-11.937 27.351-26.855v-13.117c0-14.921-10.942-27.853-25.859-29.342-16.908-1.494-30.824 11.432-30.824 28.344v14.115c-0.001 14.918 12.424 26.855 27.345 26.855zM901.04 674.13h-13.117c-14.921 0-27.853 10.942-29.342 25.859-1.494 16.908 11.432 30.824 28.344 30.824h14.115c14.919 0 26.855-12.425 26.855-27.346v-1.987c0.001-14.915-11.936-27.35-26.855-27.35zM756.318 886.155h-55.672c-14.921 0-27.853 10.942-29.342 25.859-1.494 16.908 11.432 30.824 28.344 30.824h56.67c14.919 0 26.855-12.425 26.855-27.346v-1.987c0-14.914-11.936-27.35-26.855-27.35zM595.896 703.468v-1.987c0-14.915-11.937-27.351-26.855-27.351h-13.117c-14.921 0-27.853 10.942-29.342 25.859-1.494 16.908 11.432 30.824 28.344 30.824h14.115c14.918 0 26.855-12.424 26.855-27.345zM819.636 614.18l0.398 0.297 1.195 0.891c11.959 8.913 29.063 6.773 37.979-5.189l7.838-10.518c8.916-11.964 7.87-28.871-3.201-38.979-12.664-11.302-31.547-9.253-41.652 4.308l-8.435 11.317c-8.915 11.962-6.086 28.957 5.878 37.873zM625.333 799.192c-12.664-11.302-31.547-9.253-41.652 4.308l-8.435 11.317c-8.915 11.963-6.086 28.958 5.878 37.874l0.398 0.297 1.195 0.891c11.959 8.913 29.063 6.773 37.979-5.189l7.838-10.518c8.916-11.964 7.871-28.871-3.201-38.98zM615.39 561.073c-11.964-8.916-28.871-7.87-38.979 3.201-11.302 12.664-9.253 31.547 4.308 41.652l11.317 8.435c11.963 8.915 28.958 6.086 37.874-5.878l0.297-0.398 0.891-1.195c8.913-11.959 6.773-29.063-5.189-37.979l-10.519-7.838zM864.419 807.423l-10.518-7.838c-11.964-8.916-28.871-7.87-38.979 3.201-11.302 12.664-9.253 31.547 4.308 41.652l11.317 8.435c11.963 8.915 28.958 6.086 37.874-5.878l0.297-0.398 0.891-1.195c8.913-11.96 6.773-29.064-5.19-37.979z" /></svg>
