<?xml version="1.0" standalone="no"?><!DOCTYPE svg PUBLIC "-//W3C//DTD SVG 1.1//EN" "http://www.w3.org/Graphics/SVG/1.1/DTD/svg11.dtd"><svg class="icon" width="200px" height="162.54px" viewBox="0 0 1260 1024" version="1.1" xmlns="http://www.w3.org/2000/svg"><path d="M977.92 332.8A39.384615 39.384615 0 0 0 945.230769 315.076923h-39.384615a39.384615 39.384615 0 0 0-39.384616 39.384615v236.307693a39.384615 39.384615 0 0 0 39.384616 39.384615h157.538461a39.384615 39.384615 0 0 0 39.384616-39.384615v-59.076923a39.384615 39.384615 0 0 0-6.695385-21.661539zM1063.384615 590.769231h-157.538461V354.461538h39.384615l118.153846 177.23077z"  /><path d="M1240.615385 486.006154l-157.538462-236.307692A118.153846 118.153846 0 0 0 984.615385 196.923077h-157.538462V118.153846a118.153846 118.153846 0 0 0-118.153846-118.153846H118.153846a118.153846 118.153846 0 0 0-118.153846 118.153846v433.230769a118.153846 118.153846 0 0 0 118.153846 118.153847v118.153846a118.153846 118.153846 0 0 0 118.153846 118.153846h44.898462a157.538462 157.538462 0 0 0 304.049231 0h207.950769a157.538462 157.538462 0 0 0 304.049231 0H1142.153846a118.153846 118.153846 0 0 0 118.153846-118.153846v-236.307693a118.153846 118.153846 0 0 0-19.692307-65.378461zM118.153846 590.769231a39.384615 39.384615 0 0 1-39.384615-39.384616V118.153846a39.384615 39.384615 0 0 1 39.384615-39.384615h590.769231a39.384615 39.384615 0 0 1 39.384615 39.384615v433.230769a39.384615 39.384615 0 0 1-39.384615 39.384616z m315.076923 354.461538a78.769231 78.769231 0 1 1 78.769231-78.769231 78.769231 78.769231 0 0 1-78.769231 78.769231z m512 0a78.769231 78.769231 0 1 1 78.769231-78.769231 78.769231 78.769231 0 0 1-78.769231 78.769231z m236.307693-157.538461a39.384615 39.384615 0 0 1-39.384616 39.384615h-44.898461a157.538462 157.538462 0 0 0-304.049231 0h-207.950769a157.538462 157.538462 0 0 0-304.049231 0H236.307692a39.384615 39.384615 0 0 1-39.384615-39.384615v-118.153846h512a118.153846 118.153846 0 0 0 118.153846-118.153847V275.692308h157.538462a39.384615 39.384615 0 0 1 32.68923 17.723077l157.538462 236.307692A39.384615 39.384615 0 0 1 1181.538462 551.384615z"  /></svg>
