<?xml version="1.0" standalone="no"?><!DOCTYPE svg PUBLIC "-//W3C//DTD SVG 1.1//EN" "http://www.w3.org/Graphics/SVG/1.1/DTD/svg11.dtd"><svg t="1585295948805" class="icon" viewBox="0 0 1024 1024" version="1.1" xmlns="http://www.w3.org/2000/svg" p-id="15810" xmlns:xlink="http://www.w3.org/1999/xlink" width="200" height="200"><defs><style type="text/css"></style></defs><path d="M793.6 591.872V278.528l30.72 6.144c71.168 14.336 122.88 77.824 122.88 150.528s-51.712 136.192-122.88 150.528l-30.72 6.144z m51.2-245.248v177.152c30.72-17.92 51.2-51.2 51.2-88.576s-20.48-70.656-51.2-88.576z" p-id="15811"></path><path d="M332.8 1020.928c-9.728 0-18.944-5.632-23.552-14.848l-178.688-395.776c-5.632-12.8 0-28.16 12.8-33.792 12.8-5.632 28.16 0 33.792 12.8l168.448 372.224 120.832-53.76c-20.992-18.944-38.4-44.032-52.224-75.264-20.48-46.08-33.792-114.176-40.448-208.384a26.112 26.112 0 0 1 23.552-27.648 25.6 25.6 0 0 1 27.136 23.552c6.144 86.528 18.432 151.04 36.352 190.976 17.408 39.424 39.936 64.512 69.12 76.8 9.216 4.096 15.36 13.312 15.872 23.552 0 10.24-5.632 19.456-15.36 23.552L343.04 1018.368c-3.584 1.536-7.168 2.56-10.24 2.56z" p-id="15812"></path><path d="M332.8 640h-102.4c-113.152 0-204.8-91.648-204.8-204.8s91.648-204.8 204.8-204.8h102.4v409.6z m-102.4-358.4c-84.48 0-153.6 69.12-153.6 153.6s69.12 153.6 153.6 153.6h51.2v-307.2h-51.2z" p-id="15813"></path><path d="M778.24 819.2c-14.848 0-29.696-5.12-41.984-14.848-72.192-59.392-135.68-99.84-188.928-119.808-69.12-26.112-150.016-40.96-240.64-43.52a25.9072 25.9072 0 0 1-25.088-25.6v-358.4c0-6.656 2.56-13.312 7.68-17.92 4.608-5.632 10.24-7.68 17.92-8.192 76.8 0 158.208-14.848 234.496-45.056 58.368-23.04 123.904-64.512 194.048-122.88a66.4064 66.4064 0 0 1 109.056 51.2V752.64a66.6624 66.6624 0 0 1-66.56 66.56z m-445.44-228.864c86.528 4.608 164.352 19.968 232.448 46.08 58.368 22.016 126.464 65.536 203.264 128 6.656 5.632 16.384 4.608 21.504-2.048 2.048-2.56 3.584-6.144 3.584-9.728V114.176c0-12.288-16.384-19.456-25.088-11.776-74.24 61.952-144.384 105.984-207.872 131.584-74.24 29.184-150.528 45.056-227.84 47.616v308.736z m419.328-507.392z" p-id="15814"></path></svg>