<?xml version="1.0" standalone="no"?><!DOCTYPE svg PUBLIC "-//W3C//DTD SVG 1.1//EN" "http://www.w3.org/Graphics/SVG/1.1/DTD/svg11.dtd"><svg class="icon" width="200px" height="200.00px" viewBox="0 0 1024 1024" version="1.1" xmlns="http://www.w3.org/2000/svg"><path d="M946.6 755.4L819.7 624.9V458.8c0-130.8-77.3-243.9-187.2-293.4-11.6-57.9-61.4-101.5-121.2-101.5s-109.6 43.6-121.2 101.5C280.2 214.9 203 328 203 458.8v166.1L76.1 755.4c-17.2 17.7-16.9 46.6 0.7 63.9 8.2 8.1 19.3 12.6 30.7 12.4h228.3c25.6 74.4 94.5 127.7 175.6 127.7s150-53.3 175.6-127.7h228.3c11.4 0.2 22.4-4.3 30.7-12.4 17.5-17.3 17.8-46.1 0.6-63.9zM511.5 128.7c14.1 0 27 4.8 37.5 12.8-12-1.6-24.2-2.5-36.6-2.7h-2.2c-12.2 0.2-24.3 1.1-36.1 2.6 10.5-8 23.4-12.7 37.4-12.7z m-0.2 766.9c-46 0-86.1-25.7-107.6-63.9h215.2c-21.5 38.2-61.6 63.9-107.6 63.9z m327-127.5H184.4c-12 0-18.1-15-9.6-23.7l92.2-93.8V457.1c0-138.9 109.6-252.8 244.3-254.5 134.7 1.7 244.3 115.6 244.3 254.5v193.4l92.2 93.8c8.5 8.8 2.5 23.8-9.5 23.8z" /></svg>
