<?xml version="1.0" standalone="no"?><!DOCTYPE svg PUBLIC "-//W3C//DTD SVG 1.1//EN" "http://www.w3.org/Graphics/SVG/1.1/DTD/svg11.dtd"><svg class="icon" width="200px" height="200.00px" viewBox="0 0 1024 1024" version="1.1" xmlns="http://www.w3.org/2000/svg"><path d="M916.210526 948.547368h-256V75.452632l277.557895 107.789473c18.863158 8.084211 32.336842 29.642105 32.336842 51.2v660.210527c0 29.642105-24.252632 53.894737-53.894737 53.894736zM433.852632 948.547368H266.778947V377.263158l183.242106 70.063158c13.473684 5.389474 21.557895 18.863158 21.557894 32.336842v431.157895c-2.694737 21.557895-16.168421 37.726316-37.726315 37.726315z" fill="#10ABFF" opacity=".4" /><path d="M943.157895 167.073684l-277.557895-107.789473h-5.389474-2.694737c-2.694737 0-5.389474 0-8.08421 2.694736H646.736842l-288.336842 188.631579c-26.947368 10.778947-43.115789 37.726316-43.115789 67.368421v56.589474l-43.11579-16.168421h-5.389474-2.694736c-2.694737 0-5.389474 0-8.084211 2.694737h-2.694737l-188.631579 123.957895c-18.863158 8.084211-32.336842 26.947368-32.336842 48.505263v412.294737c0 10.778947 8.084211 18.863158 18.863158 18.863157s18.863158-8.084211 18.863158-18.863157V536.252632c0-8.084211 5.389474-13.473684 10.778947-16.168421 0 0 2.694737 0 2.694737-2.694737l161.684211-107.789474v536.252632c0 10.778947 8.084211 18.863158 18.863158 18.863157H431.157895c29.642105 0 53.894737-24.252632 53.894737-53.894736v-431.157895c0-21.557895-13.473684-43.115789-35.031579-51.2l-102.4-40.421053v-72.757894c0-13.473684 8.084211-26.947368 21.557894-32.336843 0 0 2.694737 0 2.694737-2.694736L633.263158 107.789474v838.063158c0 10.778947 8.084211 18.863158 18.863158 18.863157H916.210526c40.421053 0 72.757895-32.336842 72.757895-72.757894V234.442105c0-29.642105-18.863158-56.589474-45.810526-67.368421zM450.021053 479.663158v431.157895c0 8.084211-8.084211 16.168421-16.168421 16.168421h-148.210527V404.210526l43.11579 16.168421 113.178947 43.11579c5.389474 2.694737 8.084211 10.778947 8.084211 16.168421z m501.221052 414.989474c0 18.863158-16.168421 35.031579-35.031579 35.031579h-237.136842V102.4l250.610527 97.010526c13.473684 5.389474 21.557895 18.863158 21.557894 32.336842v662.905264z" fill="#10ABFF" /></svg>