<?xml version="1.0" standalone="no"?><!DOCTYPE svg PUBLIC "-//W3C//DTD SVG 1.1//EN" "http://www.w3.org/Graphics/SVG/1.1/DTD/svg11.dtd"><svg t="1585309976791" class="icon" viewBox="0 0 1024 1024" version="1.1" xmlns="http://www.w3.org/2000/svg" p-id="22134" xmlns:xlink="http://www.w3.org/1999/xlink" width="200" height="200"><defs><style type="text/css"></style></defs><path d="M512.559104 102.407168c47.620096-0.668672 37.722112 47.896576 37.722112 93.449216 0 19.12832 3.248128 43.339776-4.284416 55.728128-5.36064 8.818688-14.343168 14.272512-26.575872 16.289792-7.154688 1.176576-13.819904-1.728512-18.006016-3.859456-26.208256-13.349888-18.863104-52.431872-18.863104-90.44992 0-15.9232-3.361792-37.322752 1.716224-49.727488C489.827328 110.253056 498.791424 108.130304 512.559104 102.407168L512.559104 102.407168zM512.559104 102.407168" p-id="22135"></path><path d="M269.073408 184.281088c11.067392-0.059392 18.671616 2.904064 24.863744 7.716864 15.860736 19.429376 31.724544 38.86592 47.58016 58.299392 7.927808 10.179584 19.726336 19.656704 24.863744 32.150528 7.20896 17.517568-3.35872 34.62144-14.144512 41.150464-11.379712 6.89152-28.972032 4.882432-38.581248-2.142208-11.418624-8.35072-20.445184-23.963648-29.14816-35.1488-8.71424-10.719232-17.435648-21.435392-26.149888-32.150528-12.063744-15.50848-31.688704-33.655808-12.857344-57.873408C251.43808 188.643328 259.054592 188.271616 269.073408 184.281088L269.073408 184.281088zM269.073408 184.281088" p-id="22136"></path><path d="M756.470784 195.85536c24.539136-0.441344 48.007168 18.366464 37.295104 45.008896-5.19168 12.91264-17.521664 21.126144-25.719808 31.29344-11.001856 12.288-22.006784 24.578048-33.007616 36.865024-5.840896 7.247872-12.3648 16.676864-20.149248 21.861376-8.722432 5.812224-25.805824 7.682048-36.00896 1.716224-13.315072-7.788544-23.72608-28.839936-12.862464-46.72512 10.860544-12.145664 21.720064-24.292352 32.580608-36.43904 8.572928-9.56928 17.14688-19.147776 25.719808-28.71808 5.610496-6.966272 11.587584-15.355904 19.289088-20.149248C747.89888 198.99904 752.186368 197.4272 756.470784 195.85536L756.470784 195.85536zM756.470784 195.85536" p-id="22137"></path><path d="M721.321984 796.8512 301.654016 796.8512 301.654016 604.378112c0-38.791168-2.51392-81.677312 6.43072-111.885312 16.76288-56.619008 49.238016-96.00512 95.16544-123.456512 20.067328-11.993088 42.697728-20.450304 69.444608-26.149888 8.858624-0.856064 17.718272-1.712128 26.575872-2.568192 8.143872-0.145408 16.289792-0.289792 24.433664-0.43008 18.182144 2.77504 34.686976 3.761152 50.156544 8.572928 70.938624 22.068224 119.79776 72.138752 141.029376 144.031744 8.89856 30.121984 6.43072 72.768512 6.43072 111.456256C721.321984 668.24192 721.321984 732.557312 721.321984 796.8512L721.321984 796.8512zM721.321984 796.8512" p-id="22138"></path><path d="M131.898368 403.33312c12.224512-0.26624 21.037056 2.536448 30.864384 4.713472 18.863104 3.714048 37.725184 7.432192 56.588288 11.14624 14.21824 3.331072 29.299712 3.518464 38.151168 12.00128 9.097216 8.718336 15.535104 27.236352 6.857728 41.57952-4.722688 7.806976-12.944384 14.019584-23.14752 16.290816-10.661888 2.372608-21.810176-1.83296-30.435328-3.859456-18.86208-3.714048-37.725184-7.428096-56.587264-11.14624-14.508032-3.396608-29.938688-3.858432-39.86432-11.5712-13.845504-10.758144-15.929344-38.882304-1.286144-50.583552C118.6816 407.394304 124.40064 406.534144 131.898368 403.33312L131.898368 403.33312zM131.898368 403.33312" p-id="22139"></path><path d="M884.217856 420.478976c28.460032-0.300032 47.72864 29.590528 30.00832 53.584896-9.648128 13.057024-26.438656 12.604416-45.868032 16.28672-19.147776 2.85696-38.296576 5.71904-57.443328 8.577024-8.543232 1.646592-19.738624 5.098496-29.57824 2.998272-11.142144-2.372608-20.719616-9.495552-24.859648-18.863104-8.35072-18.874368 2.505728-38.475776 16.28672-44.577792 7.963648-3.526656 18.130944-3.237888 27.865088-5.148672 19.004416-2.998272 38.01088-6.00064 57.014272-8.998912C866.496512 423.051264 875.358208 421.76512 884.217856 420.478976L884.217856 420.478976zM884.217856 420.478976" p-id="22140"></path><path d="M260.50048 825.573376l410.669056 0c52.173824-0.004096 97.803264-9.35936 118.31296 24.859648 3.85024 6.4256 8.009728 16.919552 6.00064 28.722176-8.854528 52.06016-64.070656 41.583616-123.027456 41.57952L377.531392 920.73472l-85.735424 0c-14.605312 0.004096-32.365568 1.591296-43.296768-2.573312-23.456768-8.928256-42.998784-40.210432-25.289728-69.444608 5.055488-8.342528 13.699072-15.833088 23.14752-19.718144C251.071488 827.855872 255.785984 826.714112 260.50048 825.573376L260.50048 825.573376zM260.50048 825.573376" p-id="22141"></path></svg>