<?xml version="1.0" standalone="no"?><!DOCTYPE svg PUBLIC "-//W3C//DTD SVG 1.1//EN" "http://www.w3.org/Graphics/SVG/1.1/DTD/svg11.dtd"><svg t="1585309328215" class="icon" viewBox="0 0 1024 1024" version="1.1" xmlns="http://www.w3.org/2000/svg" p-id="12135" xmlns:xlink="http://www.w3.org/1999/xlink" width="200" height="200"><defs><style type="text/css"></style></defs><path d="M512 478.841905c-45.348571 0-82.16381-40.96-82.16381-91.184762s36.815238-91.184762 82.16381-91.184762 82.16381 40.96 82.16381 91.184762-36.815238 91.184762-82.16381 91.184762z m0-157.744762c-31.939048 0-57.782857 29.988571-57.782857 66.803809 0 36.815238 26.087619 66.80381 57.782857 66.80381s57.782857-29.988571 57.782857-66.80381c0-36.815238-25.84381-66.80381-57.782857-66.803809zM667.062857 700.708571H356.937143c-6.826667 0-12.190476-5.36381-12.190476-12.190476V602.209524c0-57.295238 73.386667-102.15619 167.253333-102.156191s167.253333 44.860952 167.253333 102.156191v86.308571c0 6.582857-5.36381 12.190476-12.190476 12.190476z m-297.935238-24.380952h285.744762V602.209524c0-42.179048-65.340952-77.775238-142.872381-77.775238s-142.872381 35.59619-142.872381 77.775238v74.118095z" p-id="12136"></path><path d="M430.811429 700.708571c-6.826667 0-12.190476-5.36381-12.190477-12.190476v-50.712381c0-6.826667 5.36381-12.190476 12.190477-12.190476s12.190476 5.36381 12.190476 12.190476v50.712381c0 6.582857-5.36381 12.190476-12.190476 12.190476zM589.531429 700.708571c-6.826667 0-12.190476-5.36381-12.190477-12.190476v-50.712381c0-6.826667 5.36381-12.190476 12.190477-12.190476s12.190476 5.36381 12.190476 12.190476v50.712381c0 6.582857-5.36381 12.190476-12.190476 12.190476zM512 638.049524c-6.826667 0-12.190476-5.36381-12.190476-12.190476v-66.80381c0-6.826667 5.36381-12.190476 12.190476-12.190476s12.190476 5.36381 12.190476 12.190476v66.80381c0 6.826667-5.36381 12.190476-12.190476 12.190476zM512 239.908571c-6.826667 0-12.190476-5.36381-12.190476-12.190476V75.093333c0-6.826667 5.36381-12.190476 12.190476-12.190476s12.190476 5.36381 12.190476 12.190476v152.380953c0 6.826667-5.36381 12.434286-12.190476 12.434285z" p-id="12137"></path><path d="M512 239.908571c-6.826667 0-12.190476-5.36381-12.190476-12.190476V75.093333c0-6.826667 5.36381-12.190476 12.190476-12.190476s12.190476 5.36381 12.190476 12.190476v152.380953c0 6.826667-5.36381 12.434286-12.190476 12.434285zM512.487619 961.097143c-6.826667 0-12.190476-5.36381-12.190476-12.190476v-146.285715c0-6.826667 5.36381-12.190476 12.190476-12.190476s12.190476 5.36381 12.190476 12.190476v146.285715c0 6.582857-5.36381 12.190476-12.190476 12.190476z" p-id="12138"></path><path d="M512.487619 961.097143c-6.826667 0-12.190476-5.36381-12.190476-12.190476v-146.285715c0-6.826667 5.36381-12.190476 12.190476-12.190476s12.190476 5.36381 12.190476 12.190476v146.285715c0 6.582857-5.36381 12.190476-12.190476 12.190476zM948.906667 522.24h-152.380953c-6.826667 0-12.190476-5.36381-12.190476-12.190476s5.36381-12.190476 12.190476-12.190476h152.380953c6.826667 0 12.190476 5.36381 12.190476 12.190476s-5.607619 12.190476-12.190476 12.190476z" p-id="12139"></path><path d="M948.906667 522.24h-152.380953c-6.826667 0-12.190476-5.36381-12.190476-12.190476s5.36381-12.190476 12.190476-12.190476h152.380953c6.826667 0 12.190476 5.36381 12.190476 12.190476s-5.607619 12.190476-12.190476 12.190476z" p-id="12140"></path><path d="M221.379048 522.727619h-146.285715c-6.826667 0-12.190476-5.36381-12.190476-12.190476s5.36381-12.190476 12.190476-12.190476h146.285715c6.826667 0 12.190476 5.36381 12.190476 12.190476s-5.36381 12.190476-12.190476 12.190476z" p-id="12141"></path><path d="M221.379048 522.727619h-146.285715c-6.826667 0-12.190476-5.36381-12.190476-12.190476s5.36381-12.190476 12.190476-12.190476h146.285715c6.826667 0 12.190476 5.36381 12.190476 12.190476s-5.36381 12.190476-12.190476 12.190476z" p-id="12142"></path><path d="M99.474286 414.47619c-0.975238 0-1.950476 0-2.925715-0.487619a11.824762 11.824762 0 0 1-8.533333-14.872381C128 247.466667 247.466667 128 399.11619 87.771429c6.582857-1.706667 13.165714 2.194286 14.872381 8.777142a12.190476 12.190476 0 0 1-8.533333 14.872381A414.890667 414.890667 0 0 0 111.420952 405.455238c-1.462857 5.36381-6.339048 9.020952-11.946666 9.020952zM402.285714 936.71619c-0.975238 0-2.194286 0-3.169524-0.487619A439.661714 439.661714 0 0 1 87.771429 624.88381a12.190476 12.190476 0 0 1 8.533333-14.872381c6.582857-1.706667 13.165714 2.194286 14.872381 8.777142 38.034286 143.36 150.674286 256 294.034286 294.034286 6.582857 1.706667 10.48381 8.289524 8.533333 14.872381-1.219048 5.36381-6.095238 9.020952-11.459048 9.020952zM621.714286 936.71619a12.190476 12.190476 0 0 1-3.169524-23.893333c143.36-38.034286 256-150.674286 294.034286-294.034286 1.706667-6.582857 8.533333-10.48381 14.872381-8.777142 6.582857 1.706667 10.48381 8.289524 8.533333 14.872381A439.247238 439.247238 0 0 1 624.64 936.228571a10.48381 10.48381 0 0 1-2.925714 0.487619zM924.525714 414.47619c-5.36381 0-10.24-3.657143-11.702857-9.020952A414.890667 414.890667 0 0 0 618.788571 111.420952a11.824762 11.824762 0 0 1-8.533333-14.872381c1.706667-6.582857 8.533333-10.48381 14.872381-8.777142a438.832762 438.832762 0 0 1 311.344762 311.344761 12.190476 12.190476 0 0 1-8.533333 14.872381c-1.462857 0.487619-2.438095 0.487619-3.413334 0.487619z" p-id="12143"></path><path d="M402.285714 847.481905c-1.219048 0-2.681905-0.24381-3.900952-0.731429-143.36-48.761905-239.908571-183.344762-239.908572-334.750476 0-6.826667 5.36381-12.190476 12.190477-12.190476s12.190476 5.36381 12.190476 12.190476c0 141.165714 89.721905 266.48381 223.329524 311.832381 6.339048 2.194286 9.752381 9.020952 7.558095 15.36-1.706667 5.12-6.339048 8.289524-11.459048 8.289524z" p-id="12144"></path><path d="M512 865.52381c-6.826667 0-12.190476-5.36381-12.190476-12.190477s5.36381-12.190476 12.190476-12.190476c141.165714 0 266.48381-89.721905 311.832381-223.329524a12.068571 12.068571 0 1 1 22.918095 7.801905A352.938667 352.938667 0 0 1 512 865.52381z" p-id="12145"></path><path d="M853.333333 521.99619c-6.582857 0-12.190476-5.36381-12.190476-12.190476a328.728381 328.728381 0 0 0-223.329524-309.638095 12.068571 12.068571 0 1 1 7.801905-22.918095c142.628571 48.274286 239.177143 182.125714 239.908572 332.55619 0 6.826667-5.36381 12.190476-12.190477 12.190476z" p-id="12146"></path><path d="M188.708571 414.47619c-1.219048 0-2.681905-0.24381-3.900952-0.731428a12.068571 12.068571 0 0 1-7.558095-15.36c48.761905-143.36 183.344762-239.908571 334.750476-239.908572 6.826667 0 12.190476 5.36381 12.190476 12.190477s-5.36381 12.190476-12.190476 12.190476c-141.165714 0-266.48381 89.721905-311.832381 223.329524-1.706667 5.12-6.339048 8.289524-11.459048 8.289523z" p-id="12147"></path></svg>