<?xml version="1.0" standalone="no"?><!DOCTYPE svg PUBLIC "-//W3C//DTD SVG 1.1//EN" "http://www.w3.org/Graphics/SVG/1.1/DTD/svg11.dtd"><svg t="1585310080932" class="icon" viewBox="0 0 1024 1024" version="1.1" xmlns="http://www.w3.org/2000/svg" p-id="23727" xmlns:xlink="http://www.w3.org/1999/xlink" width="200" height="200"><defs><style type="text/css"></style></defs><path d="M66.56 363.136c0 1.152 0.384 28.672 28.672 28.672s28.672-27.52 28.672-28.672L123.904 184.96c0-33.664 27.392-61.056 61.056-61.056l178.176 0c1.152 0 28.672-0.384 28.672-28.672S364.288 66.56 363.136 66.56L184.832 66.56C119.552 66.56 66.56 119.68 66.56 184.832L66.56 363.136z" p-id="23728"></path><path d="M750.208 483.328 273.92 483.328c-15.744 0-28.672 12.8-28.672 28.672 0 15.744 12.8 28.672 28.672 28.672l476.288 0c15.744 0 28.672-12.8 28.672-28.672C778.752 496.256 765.952 483.328 750.208 483.328z" p-id="23729"></path><path d="M928.768 391.808c28.288 0 28.672-27.52 28.672-28.672L957.44 184.832c0-65.28-53.12-118.272-118.272-118.272L660.864 66.56c-1.152 0-28.672 0.384-28.672 28.672s27.52 28.672 28.672 28.672l178.176 0c33.664 0 61.056 27.392 61.056 61.056l0 178.176C900.096 364.288 900.48 391.808 928.768 391.808z" p-id="23730"></path><path d="M95.232 632.192c-28.288 0-28.672 27.52-28.672 28.672l0 178.304c0 65.28 53.12 118.272 118.272 118.272l178.304 0c1.152 0 28.672-0.384 28.672-28.672 0-28.288-27.52-28.672-28.672-28.672L184.96 900.096c-33.664 0-61.056-27.392-61.056-61.056L123.904 660.864C123.904 659.712 123.52 632.192 95.232 632.192z" p-id="23731"></path><path d="M957.44 660.864c0-1.152-0.384-28.672-28.672-28.672-28.288 0-28.672 27.52-28.672 28.672l0 178.176c0 33.664-27.392 61.056-61.056 61.056L660.864 900.096c-1.152 0-28.672 0.384-28.672 28.672 0 28.288 27.52 28.672 28.672 28.672l178.304 0c65.28 0 118.272-53.12 118.272-118.272L957.44 660.864z" p-id="23732"></path></svg>