<?xml version="1.0" standalone="no"?><!DOCTYPE svg PUBLIC "-//W3C//DTD SVG 1.1//EN" "http://www.w3.org/Graphics/SVG/1.1/DTD/svg11.dtd"><svg t="1585107213301" class="icon" viewBox="0 0 1024 1024" version="1.1" xmlns="http://www.w3.org/2000/svg" p-id="25030" xmlns:xlink="http://www.w3.org/1999/xlink" width="200" height="200"><defs><style type="text/css"></style></defs><path d="M591.644444 574.577778l-85.333333 85.333333-136.533333-136.533333 79.644444-79.644445-39.822222-39.822222-79.644444 79.644445-79.644445-79.644445-96.711111 96.711111a261.688889 261.688889 0 0 0-22.755556 347.022222L0 984.177778l39.822222 39.822222L170.666667 893.155556c45.511111 39.822222 102.4 56.888889 159.288889 56.888888 68.266667 0 136.533333-28.444444 187.733333-79.644444l96.711111-96.711111-73.955556-73.955556 85.333334-85.333333-34.133334-39.822222z m-113.777777 250.311111c-39.822222 39.822222-91.022222 62.577778-142.222223 62.577778-51.2 0-102.4-17.066667-136.533333-56.888889l-5.688889-5.688889c-73.955556-73.955556-73.955556-199.111111 5.688889-278.755556l51.2-51.2 278.755556 278.755556-51.2 51.2zM978.488889 91.022222l-39.822222-39.822222L813.511111 170.666667c-45.511111-39.822222-102.4-56.888889-159.288889-56.888889-68.266667 0-136.533333 28.444444-187.733333 79.644444L369.777778 284.444444l369.777778 369.777778 91.022222-91.022222a261.688889 261.688889 0 0 0 22.755555-347.022222l125.155556-125.155556z m-193.422222 426.666667l-45.511111 45.511111L460.8 284.444444l45.511111-45.511111c39.822222-39.822222 91.022222-62.577778 142.222222-62.577777 51.2 0 102.4 17.066667 136.533334 56.888888l5.688889 5.688889c79.644444 73.955556 73.955556 199.111111-5.688889 278.755556z" fill="#333333" p-id="25031"></path></svg>