<?xml version="1.0" standalone="no"?><!DOCTYPE svg PUBLIC "-//W3C//DTD SVG 1.1//EN" "http://www.w3.org/Graphics/SVG/1.1/DTD/svg11.dtd"><svg t="1585107754096" class="icon" viewBox="0 0 1024 1024" version="1.1" xmlns="http://www.w3.org/2000/svg" p-id="27225" xmlns:xlink="http://www.w3.org/1999/xlink" width="200" height="200"><defs><style type="text/css"></style></defs><path d="M950.132364 906.658909h-418.909091v-128.837818h42.914909l0.418909 0.093091 0.558545-0.093091h366.405819a23.272727 23.272727 0 0 0 23.272727-23.272727V146.897455a23.272727 23.272727 0 0 0-23.272727-23.272728H74.426182a23.272727 23.272727 0 0 0-23.272727 23.272728v607.650909a23.272727 23.272727 0 0 0 23.272727 23.272727h410.251636v128.837818h-418.909091a23.272727 23.272727 0 0 0 0 46.545455h884.363637a23.272727 23.272727 0 0 0 0-46.545455zM450.978909 731.275636a79.080727 79.080727 0 0 1-22.295273-54.551272c0-43.659636 35.560727-79.220364 79.266909-79.220364 13.544727 0 26.112 3.723636 37.236364 9.728a22.900364 22.900364 0 0 0 6.190546 13.079273 23.179636 23.179636 0 0 0 16.47709 6.795636c0.418909 0 0.837818-0.232727 1.256728-0.232727 11.124364 13.637818 18.152727 30.859636 18.152727 49.803636a79.127273 79.127273 0 0 1-22.434909 54.551273H450.978909zM918.248727 170.170182v318.370909c-71.540364-155.322182-228.305455-263.68-410.251636-263.68a450.187636 450.187636 0 0 0-318.277818 131.537454c-0.372364 0.325818-0.884364 0.465455-1.210182 0.837819s-0.465455 0.837818-0.837818 1.210181A453.818182 453.818182 0 0 0 97.745455 488.541091v-318.370909h820.503272zM97.698909 699.997091h70.656a23.272727 23.272727 0 0 0 0-46.545455H103.796364a403.269818 403.269818 0 0 1 101.981091-245.946181l45.521454 45.521454a23.365818 23.365818 0 0 0 32.907636-0.046545 23.272727 23.272727 0 0 0 0-32.907637l-45.474909-45.474909a402.618182 402.618182 0 0 1 245.946182-101.981091v64.465455a23.272727 23.272727 0 0 0 46.545455 0V272.570182a405.224727 405.224727 0 0 1 380.881454 380.881454h-64.465454a23.272727 23.272727 0 0 0 0 46.545455h70.609454v31.278545h-297.146182c8.145455-16.802909 12.660364-35.374545 12.660364-54.551272 0-29.602909-10.705455-56.506182-27.927273-78.010182l178.548364-178.501818a23.272727 23.272727 0 0 0-32.907636-32.907637l-181.015273 180.968728a124.416 124.416 0 0 0-62.557091-17.31491 125.952 125.952 0 0 0-125.812364 125.765819c0 19.130182 4.654545 37.701818 12.8 54.551272H97.698909v-31.278545z" p-id="27226"></path></svg>