<?xml version="1.0" standalone="no"?><!DOCTYPE svg PUBLIC "-//W3C//DTD SVG 1.1//EN" "http://www.w3.org/Graphics/SVG/1.1/DTD/svg11.dtd"><svg t="1585105257806" class="icon" viewBox="0 0 1024 1024" version="1.1" xmlns="http://www.w3.org/2000/svg" p-id="11409" xmlns:xlink="http://www.w3.org/1999/xlink" width="200" height="200"><defs><style type="text/css"></style></defs><path d="M857.92768 1017.2928 151.5264 1017.2928C73.49248 1017.2928 10.24 954.0352 10.24 876.01152L10.24 169.58976C10.24 91.5712 75.84768 11.8272 153.87136 11.8272l395.00288 0 0 71.81824L153.87136 83.64544c-39.00928 0-71.81824 32.80384-71.81824 71.82336l-1.17248 720.54272c0 39.00928 31.62624 70.63552 70.64576 70.63552l720.53248-1.17248c39.0144 0 71.81824-32.80896 71.81824-71.82336L943.87712 478.65344l71.81312 0 0 394.99776C1015.69024 951.68 935.9616 1017.2928 857.92768 1017.2928zM979.78368 335.01696c-20.37248 0.03072-35.93728-16.48128-35.90656-35.91168l-1.07008-171.58656L396.35456 648.71936c-14.33088 13.66528-37.56544 13.66528-51.89632 0-14.32576-13.6704-14.32576-35.83488 0-49.50528L886.22592 82.49856l-157.7984 1.14688c-20.38272 0.03072-35.94752-16.47616-35.9168-35.90656 0.03584-19.44064 15.53408-35.88096 35.9168-35.91168l250.5728 0c20.37248-0.02048 36.72576 15.56992 36.68992 35.00032l0 252.27264C1015.66464 318.53568 1000.16128 334.98112 979.78368 335.01696z" p-id="11410"></path></svg>