<?xml version="1.0" standalone="no"?><!DOCTYPE svg PUBLIC "-//W3C//DTD SVG 1.1//EN" "http://www.w3.org/Graphics/SVG/1.1/DTD/svg11.dtd"><svg t="1586487014946" class="icon" viewBox="0 0 1024 1024" version="1.1" xmlns="http://www.w3.org/2000/svg" p-id="1354" xmlns:xlink="http://www.w3.org/1999/xlink" width="200" height="200"><defs><style type="text/css"></style></defs><path d="M469.333333 896a42.666667 42.666667 0 0 1 0 85.333333H128a85.333333 85.333333 0 0 1-85.333333-85.333333V128a85.333333 85.333333 0 0 1 85.333333-85.333333h768a85.333333 85.333333 0 0 1 85.333333 85.333333v298.666667a42.666667 42.666667 0 0 1-85.333333 0V170.666667a42.666667 42.666667 0 0 0-42.666667-42.666667H170.666667a42.666667 42.666667 0 0 0-42.666667 42.666667v682.666666a42.666667 42.666667 0 0 0 42.666667 42.666667h298.666666zM213.333333 192h234.666667a21.333333 21.333333 0 0 1 21.333333 21.333333v234.666667a21.333333 21.333333 0 0 1-21.333333 21.333333H213.333333a21.333333 21.333333 0 0 1-21.333333-21.333333V213.333333a21.333333 21.333333 0 0 1 21.333333-21.333333z m362.666667 0H810.666667a21.333333 21.333333 0 0 1 21.333333 21.333333v234.666667a21.333333 21.333333 0 0 1-21.333333 21.333333h-234.666667a21.333333 21.333333 0 0 1-21.333333-21.333333V213.333333a21.333333 21.333333 0 0 1 21.333333-21.333333zM213.333333 554.666667h234.666667a21.333333 21.333333 0 0 1 21.333333 21.333333V810.666667a21.333333 21.333333 0 0 1-21.333333 21.333333H213.333333a21.333333 21.333333 0 0 1-21.333333-21.333333v-234.666667A21.333333 21.333333 0 0 1 213.333333 554.666667z m426.666667 0h298.666667a42.666667 42.666667 0 0 1 0 85.333333h-298.666667a42.666667 42.666667 0 0 1 0-85.333333z m0 170.666666h298.666667a42.666667 42.666667 0 0 1 0 85.333334h-298.666667a42.666667 42.666667 0 0 1 0-85.333334z m0 170.666667h298.666667a42.666667 42.666667 0 0 1 0 85.333333h-298.666667a42.666667 42.666667 0 0 1 0-85.333333z" p-id="1355"></path></svg>