<?xml version="1.0" standalone="no"?><!DOCTYPE svg PUBLIC "-//W3C//DTD SVG 1.1//EN" "http://www.w3.org/Graphics/SVG/1.1/DTD/svg11.dtd"><svg t="1585109340865" class="icon" viewBox="0 0 1024 1024" version="1.1" xmlns="http://www.w3.org/2000/svg" p-id="35068" xmlns:xlink="http://www.w3.org/1999/xlink" width="200" height="200"><defs><style type="text/css"></style></defs><path d="M851.2 172.8C664.32-14.08 359.68-14.08 172.16 172.8A477.376 477.376 0 0 0 32 512c0 128 49.92 248.96 140.8 339.2 93.44 93.44 216.32 140.8 339.2 140.8s245.76-46.72 339.2-140.16c90.88-90.88 140.8-211.2 140.8-339.2 0-128.64-49.92-249.6-140.8-339.84z m-90.24 588.16c-136.96 136.96-360.32 136.96-497.92 0A349.44 349.44 0 0 1 160 512c0-94.08 36.48-182.4 103.04-248.96C331.52 194.56 421.76 160 512 160s180.48 34.56 248.96 103.04A349.44 349.44 0 0 1 864 512c0 94.08-36.48 182.4-103.04 248.96z" fill="" p-id="35069"></path><path d="M553.6 444.16l25.6-236.8c0-1.92-0.64-3.84-1.92-5.12-0.64-1.28-1.92-1.92-3.84-1.92h-7.04c-1.92 0-3.84 1.28-5.12 2.56L316.8 565.12c-1.28 1.92-1.28 4.48-0.64 6.4 1.28 1.92 3.2 3.2 5.76 3.2H448l-33.92 241.28c0 1.92 0 3.84 1.28 5.12 1.28 1.28 3.2 1.92 5.12 1.92h4.48c1.92 0 3.84-1.28 5.12-2.56l256.64-366.72c1.28-1.92 1.28-4.48 0.64-6.4a6.72 6.72 0 0 0-5.76-3.2h-128z" fill="" p-id="35070"></path></svg>