<?xml version="1.0" standalone="no"?><!DOCTYPE svg PUBLIC "-//W3C//DTD SVG 1.1//EN" "http://www.w3.org/Graphics/SVG/1.1/DTD/svg11.dtd"><svg t="1585309669371" class="icon" viewBox="0 0 1025 1024" version="1.1" xmlns="http://www.w3.org/2000/svg" p-id="19816" xmlns:xlink="http://www.w3.org/1999/xlink" width="200.1953125" height="200"><defs><style type="text/css"></style></defs><path d="M576 64H256a64.19 64.19 0 0 0-64 64v768a64.19 64.19 0 0 0 64 64h512a64.19 64.19 0 0 0 64-64V320z m83.2 576.65C646 719 604.8 764.15 572.8 781.43 538.13 800.15 512 800 512 800s-26.13 0.15-60.8-18.57c-32-17.28-73.2-62.43-86.4-140.78-12.37-73.38-12.8-114.94-12.8-114.94s35.1 5.5 89.6-9.85C487 503.06 512 480 512 480s25 23.06 70.4 35.86c54.5 15.35 89.6 9.85 89.6 9.85s-0.43 41.56-12.8 114.94zM576 320V128l192 192z" p-id="19817"></path></svg>