<?xml version="1.0" standalone="no"?><!DOCTYPE svg PUBLIC "-//W3C//DTD SVG 1.1//EN" "http://www.w3.org/Graphics/SVG/1.1/DTD/svg11.dtd"><svg t="1585105850924" class="icon" viewBox="0 0 1024 1024" version="1.1" xmlns="http://www.w3.org/2000/svg" p-id="15869" xmlns:xlink="http://www.w3.org/1999/xlink" width="200" height="200"><defs><style type="text/css"></style></defs><path d="M585.728666 882.424242c0-72.791919 0-145.583838 0-219.280808-49.131313 0-97.228283 0-146.488889 0 0 72.921212 0 145.713131 0 219.927273-4.525253 0.258586-8.274747 0.517172-11.894949 0.517172-69.171717 0-138.343434 0-207.385859 0-23.789899 0-39.692929-14.351515-39.822222-38.141414-0.517172-90.246465-0.387879-180.492929 0.129293-270.739394 0-4.783838 3.878788-10.860606 7.757576-14.092929 62.577778-52.105051 125.414141-103.822222 188.250505-155.539394 41.761616-34.391919 83.523232-68.913131 125.414141-103.305051 3.232323-2.715152 6.593939-5.30101 10.60202-8.533333 24.953535 20.557576 49.777778 40.856566 74.60202 61.414141 81.842424 67.361616 163.426263 134.981818 245.527273 202.084848 8.791919 7.240404 12.541414 14.480808 12.541414 26.117172-0.517172 85.721212-0.387879 171.313131-0.129293 257.034343 0 15.515152-3.878788 29.090909-17.583838 37.753535-5.042424 3.10303-11.248485 5.818182-17.066667 5.818182-73.438384 0.387879-146.747475 0.129293-220.056566 0.129293C588.831696 883.458586 587.797353 883.070707 585.728666 882.424242L585.728666 882.424242zM695.886242 275.264646c0-36.20202 0-69.559596 0-103.046465 0-21.333333 5.171717-26.375758 26.375758-26.505051 33.09899 0 66.068687 0 99.167677 0 17.066667 0 22.884848 6.076768 23.014141 24.048485 0.129293 71.49899 0.258586 142.99798-0.258586 214.367677-0.129293 10.989899 2.973737 18.10101 11.636364 25.082828 36.20202 29.090909 71.757576 59.086869 107.442424 88.824242 17.583838 14.610101 17.971717 21.721212 3.232323 39.046465-8.921212 10.60202-17.713131 21.333333-26.634343 31.806061-11.119192 13.058586-20.169697 13.834343-33.486869 2.715152-126.836364-105.761616-253.543434-211.652525-380.379798-317.543434-4.39596-3.620202-8.921212-7.240404-13.963636-11.377778-28.573737 23.789899-56.759596 47.321212-85.074747 70.852525C324.16907 399.773737 221.122605 485.753535 118.205434 571.60404c-13.963636 11.636364-22.626263 10.989899-34.391919-2.715152-9.69697-11.377778-19.393939-22.884848-28.961616-34.391919-11.119192-13.446465-10.731313-22.109091 2.715152-33.486869 57.406061-48.09697 115.070707-95.935354 172.606061-143.90303 76.670707-63.870707 153.470707-127.741414 230.141414-191.870707 34.779798-29.090909 68.654545-29.090909 103.563636 0.258586 41.244444 34.521212 82.488889 69.042424 123.862626 103.434343C689.809474 270.610101 691.748868 272.032323 695.886242 275.264646L695.886242 275.264646z" p-id="15870"></path></svg>