<?xml version="1.0" standalone="no"?><!DOCTYPE svg PUBLIC "-//W3C//DTD SVG 1.1//EN" "http://www.w3.org/Graphics/SVG/1.1/DTD/svg11.dtd"><svg t="1585112048807" class="icon" viewBox="0 0 1024 1024" version="1.1" xmlns="http://www.w3.org/2000/svg" p-id="39776" xmlns:xlink="http://www.w3.org/1999/xlink" width="200" height="200"><defs><style type="text/css"></style></defs><path d="M919.724075 715.073068c-1.140986-27.353998-19.024286-42.460044-42.618657-41.899272-23.378453 0.554632-38.799678 15.928784-40.99467 43.88858-1.610684 20.539802-0.231267 41.299615-0.676405 61.951981-1.115404 51.828412-12.339026 63.804165-64.151066 64.826448-49.90869 0.985444-99.853196 0.323365-149.781328 0.327458-115.351168 0.00921-230.704382 0.094144-346.05555-0.065492-79.440283-0.109494-86.325088-6.972808-86.704734-84.203774-0.068562-13.770632 0.62524-27.626197-0.639566-41.293475-2.692319-29.087479-16.327874-44.221154-39.414685-45.526893-24.920576-1.411139-43.084261 15.533788-44.989657 45.49517-1.74269 27.442002-0.763386 55.07127-0.582261 82.615603 0.590448 89.169879 40.095183 129.182174 129.293715 129.691781 92.966345 0.532119 185.938829 0.118704 278.909268 0.140193 27.54638 0.022513 55.094806 0.031722 82.640162 0.021489 70.589708-0.024559 141.195789 0.956791 211.758891-0.39295 62.212924-1.189082 107.706047-37.176714 112.958678-91.756797C922.616962 797.940404 921.441183 756.292865 919.724075 715.073068z" p-id="39777"></path><path d="M197.8583 440.865893c88.756463 88.806605 177.525206 177.601954 266.292925 266.398326 3.647063 3.64911 7.361665 7.230682 10.984169 10.902304 14.284331 14.481829 30.947849 22.644743 51.134611 14.996552 6.584975-2.494821 11.479449-6.255471 15.664771-10.522658 2.762927-1.912559 5.470595-4.0175 7.9296-6.407943 45.635363-44.375673 240.102427-239.467977 285.027615-284.574291 4.825912-4.845355 9.463536-10.05296 13.269211-15.71082 12.214183-18.164708 10.541077-35.95898-3.945869-51.853995-14.818497-16.257266-33.480532-16.939811-51.874461-7.894807-8.930393 4.391007-16.285918 12.4608-23.556509 19.673062-30.239721 29.991058-139.611711 139.26481-212.845643 212.610282 0.037862-114.560152 0.050142-229.119281 0.027629-343.680457-0.00614-34.398438 1.090844-68.859297-0.615007-103.175871-1.587148-31.878035-17.058514-48.140417-41.968857-48.957015-25.551956-0.838088-41.055045 14.728446-44.538379 46.158273-1.320065 11.908214-0.623193 24.053835-0.629333 36.09201-0.040932 75.676563-0.021489 151.355173-0.021489 227.033783-0.001023 56.590879 0 113.181759 0 169.773661-3.928472 1.738597-7.855922 3.476171-11.784394 5.214768-22.74912-22.663162-45.525869-45.303812-68.245314-67.99665-47.452755-47.405683-94.28948-95.445816-142.575206-141.985782-21.800515-21.013593-47.071062-21.358447-64.429405-4.840238-18.709107 17.803481-18.050098 39.000246 2.325975 63.951521C187.818643 431.374728 192.996572 436.000072 197.8583 440.865893z" p-id="39778"></path></svg>