<?xml version="1.0" standalone="no"?><!DOCTYPE svg PUBLIC "-//W3C//DTD SVG 1.1//EN" "http://www.w3.org/Graphics/SVG/1.1/DTD/svg11.dtd"><svg t="1585309439391" class="icon" viewBox="0 0 1025 1024" version="1.1" xmlns="http://www.w3.org/2000/svg" p-id="13716" xmlns:xlink="http://www.w3.org/1999/xlink" width="200.1953125" height="200"><defs><style type="text/css"></style></defs><path d="M964.7 317c-34.3-34.6-81.2-56.9-132.7-59.6L832 118.7C832 53.1 778.8 0 713.3 0l-15.6 0L321.2 0l-10.5 0C245.2 0 192 53.1 192 118.7l0 138.8c-51.6 2.8-98.2 25.1-132.7 59.5C22.6 353.6 0 404.2 0 459.8l0 361.7c0 54.2 22.4 104 57.3 140.9l2 2c36.9 36.6 87.8 59.5 143.7 59.5l618.7 0c55.6 0 106.5-22.9 143.1-59.5 36.6-36.6 59.3-87.2 59.3-142.9L1024.1 459.8C1024 404.2 1001.4 353.6 964.7 317zM104.5 362.3c24.5-24.5 56.8-39 90.9-40.9l60.6-3.3 0-60.6L256 118.7c0-30.2 24.5-54.7 54.7-54.7l10.5 0 376.5 0 15.6 0c30.2 0 54.7 24.5 54.7 54.7l0 138.7 0 60.8 60.7 3.1c34.1 1.8 66.3 16.2 90.6 40.7l0.1 0.1 0.1 0.1c26.1 26.1 40.5 60.8 40.5 97.6l0 147.5L832 607.3 832 512 640 512l0 95.4L384 607.4 384 512 192 512l0 95.4L64 607.4 64 459.8C64 423 78.4 388.4 104.5 362.3zM768 576l0 128-64 0L704 576 768 576zM320 576l0 128-64 0L256 576 320 576zM919.5 919.2c-12.8 12.8-27.7 22.8-44.2 29.9-17.1 7.3-35.1 10.9-53.6 10.9L203 960c-36.9 0-71.9-14.5-98.5-40.9l-1.2-1.2c-25.3-27-39.2-61.2-39.2-96.3L64.1 671.4l128 0L192.1 768l192 0 0-96.6 256 0L640.1 768l192 0 0-96.6 128 0 0 150.2C960 858.4 945.6 893.1 919.5 919.2z" p-id="13717"></path><path d="M704 177.2c0-27.2-22-49.2-49.2-49.2L369.2 128c-27.2 0-49.2 22-49.2 49.2L320 320l384 0L704 177.2zM640 256 384 256l0-64 256 0L640 256z" p-id="13718"></path></svg>