<?xml version="1.0" standalone="no"?><!DOCTYPE svg PUBLIC "-//W3C//DTD SVG 1.1//EN" "http://www.w3.org/Graphics/SVG/1.1/DTD/svg11.dtd"><svg t="1585108411771" class="icon" viewBox="0 0 1024 1024" version="1.1" xmlns="http://www.w3.org/2000/svg" p-id="29302" xmlns:xlink="http://www.w3.org/1999/xlink" width="200" height="200"><defs><style type="text/css"></style></defs><path d="M732.089122 1019.920127c-154.87516 0-280.359239-125.596075-280.359239-280.599231 0-155.019156 125.484079-280.615231 280.359239-280.615231s280.359239 125.596075 280.359239 280.615231c0 155.003156-125.484079 280.599231-280.359239 280.599231z m143.627512-139.035655l-79.645511-79.709509a144.747477 144.747477 0 0 0 30.495047-89.117215c0-80.253492-64.989969-145.323459-145.211462-145.323458-80.189494 0-145.179463 65.069967-145.179463 145.323458 0 80.269492 64.989969 145.323459 145.179463 145.323459a144.475485 144.475485 0 0 0 89.053217-30.527046l79.645511 79.709509a18.095435 18.095435 0 0 0 25.663198 0 18.127434 18.127434 0 0 0 0-25.679198z m-194.361926-59.83813c-60.046124 0-108.876598-48.862473-108.876598-108.988594 0-60.094122 48.830474-108.988594 108.876598-108.988594 60.078123 0 108.908597 48.894472 108.908596 108.988594 0 60.126121-48.830474 108.988594-108.908596 108.988594zM732.089122 387.219899c-9.791694 0-19.391394 0.415987-28.975094 1.231962V71.485766l-415.651011 135.819756v-41.454705L745.160714 0.016l137.515702 116.204368V421.138839c-4.47986-2.047936-8.97572-4.095872-13.663573-6.143808a349.10909 349.10909 0 0 0-136.923721-27.775132z m-133.851817-128.043998v154.603168l-3.071904 1.215962a346.213181 346.213181 0 0 0-111.804506 75.373645 349.237086 349.237086 0 0 0-64.077998 87.597263V270.40755L72.589732 381.300084v642.715916H11.583638l0.207994-675.386895 463.393518-161.946939 123.052155 72.493735zM356.436861 477.905065L138.507672 536.111247v-98.028937l217.929189-71.485766v111.308521z m0 179.514391L138.507672 699.690135v-93.949064l217.929189-55.550264v107.228649z m0 182.3783L138.507672 860.213118v-91.901128l217.929189-35.534889v107.020655z m0 181.962314H138.507672v-97.212962l217.929189-15.311522v112.524484z m163.85088-1.231962h-101.004844v-119.868254a354.56492 354.56492 0 0 0 64.061998 87.613262 344.069248 344.069248 0 0 0 36.942846 32.254992z" p-id="29303"></path></svg>