<?xml version="1.0" standalone="no"?><!DOCTYPE svg PUBLIC "-//W3C//DTD SVG 1.1//EN" "http://www.w3.org/Graphics/SVG/1.1/DTD/svg11.dtd"><svg t="1585104038997" class="icon" viewBox="0 0 1024 1024" version="1.1" xmlns="http://www.w3.org/2000/svg" p-id="1095" xmlns:xlink="http://www.w3.org/1999/xlink" width="200" height="200"><defs><style type="text/css"></style></defs><path d="M508.582 77.43c242.085 0 439.033 196.947 439.033 439.038 0 115.962-44.923 225.384-126.421 308.06-83.258 84.476-194.255 130.973-312.612 130.973-118.324 0-229.379-46.497-312.618-130.973-81.54-82.675-126.42-192.098-126.42-308.06 0-242.091 196.946-439.037 439.038-439.037m0-60.863c-275.646 0-499.9 224.254-499.9 499.9 0 132.097 51.122 256.679 143.95 350.798 94.73 96.14 221.15 149.098 355.95 149.098 134.773 0 261.188-52.956 355.96-149.113 92.816-94.158 143.936-218.737 143.936-350.784-0.001-275.645-224.253-499.9-499.896-499.9z" p-id="1096"></path><path d="M508.601 322.51c27.155 0 115.881 8.961 115.881 124.09 0 71.702-21.55 125.585-60.686 151.685-6.867 4.573-9.856 13.151-7.302 20.993l1.696 5.172c12.251 37.976 23.807 73.879 50.407 86.171 16.924 7.842 32.75 14.864 47.358 21.37 12.093 5.41 23.089 10.36 33.224 15.069 2.798 1.297 5.034 2.431 7.683 3.69 7.027 3.315 13.951 6.585 20.018 9.678 3.094 1.558 5.59 3.054 8.42 4.573 4.911 2.635 9.86 5.247 14.09 7.821 2.797 1.675 5.05 3.355 7.565 5.01 3.552 2.373 7.165 4.73 10.217 7.124 2.294 1.818 4.15 3.695 6.167 5.527 2.555 2.337 5.13 4.67 7.264 7.106 1.755 2.014 3.174 4.149 4.648 6.264 1.758 2.473 3.491 4.93 4.89 7.565 1.24 2.337 2.194 4.829 3.152 7.324 1.077 2.733 2.135 5.51 2.935 8.462 0.716 2.771 1.236 5.749 1.735 8.742 0.301 1.855 0.538 3.81 0.76 5.766-75.536 73.439-174.638 113.79-280.122 113.79-105.45 0-204.592-40.35-280.169-113.79 0.238-1.998 0.46-4.011 0.778-5.908 0.5-2.913 0.998-5.828 1.718-8.52 0.8-3.053 1.875-5.887 2.993-8.7 0.958-2.415 1.876-4.849 3.074-7.126 1.414-2.672 3.211-5.187 4.986-7.7 1.477-2.078 2.854-4.19 4.595-6.167 2.135-2.436 4.727-4.77 7.28-7.105 2.017-1.856 3.893-3.752 6.209-5.57 2.974-2.314 6.503-4.626 9.958-6.94 2.612-1.738 4.967-3.477 7.862-5.21 4.013-2.416 8.703-4.891 13.269-7.365 3.137-1.675 5.93-3.333 9.341-5.05 5.469-2.793 11.775-5.748 18-8.701 3.312-1.578 6.21-3.052 9.762-4.69 10.099-4.668 21.035-9.6 33.048-14.968 14.586-6.545 30.414-13.59 47.352-21.37 26.524-12.292 38.098-48.238 50.39-86.273l1.66-5.07c2.513-7.842-0.44-16.42-7.265-20.993-39.173-26.123-60.73-80.004-60.73-151.685 0-115.13 88.686-124.09 115.89-124.09m0-60.864c-21.356 0-62.917 3.73-101.33 28.713-23.29 15.147-41.602 35.5-54.428 60.493-13.931 27.149-20.995 59.363-20.995 95.747 0 77.472 21.786 140.385 62 181.007-1.99 5.69-3.985 10.996-6.029 15.738-3.389 7.861-5.833 11.575-6.966 13.069-12.585 5.765-24.488 11.097-36.023 16.264-2.85 1.278-5.658 2.534-8.42 3.774-13.92 6.22-24.3 10.922-33.638 15.237a353.444 353.444 0 0 0-7.25 3.463c-1.035 0.505-2.07 1.01-3.155 1.529l-2.436 1.154c-5.633 2.668-11.457 5.426-16.95 8.227-3.148 1.587-5.772 3.045-7.888 4.218-0.859 0.477-1.714 0.954-2.608 1.432l-0.162 0.086-0.161 0.088-2.298 1.24c-4.12 2.222-8.786 4.739-13.314 7.462-3.562 2.136-6.43 4.107-8.529 5.547-0.564 0.388-1.126 0.777-1.708 1.164l-0.085 0.057-0.085 0.057-1.232 0.824c-3.7 2.472-7.893 5.273-12.236 8.655l-0.097 0.074-0.095 0.075c-3.876 3.042-6.848 5.844-8.816 7.698-0.313 0.295-0.626 0.591-0.944 0.886l-0.443 0.403c-3.048 2.786-7.217 6.595-11.41 11.37-3.615 4.108-6.16 7.755-7.848 10.17-0.212 0.303-0.423 0.608-0.639 0.91l-0.064 0.089-0.063 0.09-0.22 0.31c-2.252 3.19-5.657 8.01-8.836 14.017l-0.037 0.071-0.038 0.071c-2.59 4.927-4.327 9.331-5.477 12.246l-0.304 0.769c-1.689 4.25-3.642 9.448-5.253 15.561-1.414 5.318-2.251 10.2-2.864 13.775l-0.02 0.111-0.026 0.155c-0.519 3.1-0.84 5.825-1.098 8.016l-0.09 0.758-3.553 29.875 21.577 20.968c86.937 84.478 201.5 131.003 322.584 131.003 121.1 0 235.651-46.529 322.55-131.015l21.418-20.823-3.37-29.68c-0.282-2.489-0.641-5.463-1.159-8.65l-0.02-0.131-0.022-0.133c-0.675-4.043-1.505-8.79-2.841-13.956l-0.089-0.34-0.09-0.338c-1.517-5.6-3.276-10.333-4.958-14.613-1.297-3.375-3.217-8.327-6.108-13.778-3.226-6.074-6.578-10.834-8.864-14.05l-0.38-0.546c-1.771-2.558-4.448-6.425-8.183-10.71l-0.052-0.06-0.05-0.058c-4.277-4.883-8.556-8.792-11.68-11.647l-0.297-0.272-0.067-0.063-0.068-0.062c-0.361-0.329-0.713-0.66-1.067-0.993-1.844-1.729-4.632-4.34-8.223-7.188l-0.124-0.098-0.125-0.098c-4.532-3.554-8.884-6.454-12.725-9.015l-1.232-0.822-0.19-0.127-0.192-0.126c-0.545-0.359-1.069-0.723-1.595-1.084-1.95-1.338-4.61-3.163-7.946-5.17-5.144-3.123-10.265-5.866-15.222-8.518l-1.56-0.836c-0.74-0.399-1.464-0.806-2.19-1.21-1.988-1.11-4.453-2.487-7.482-4.016-6.912-3.521-14.323-7.019-21.495-10.403a256.99 256.99 0 0 1-2.568-1.241 308.286 308.286 0 0 0-5.543-2.649c-10.13-4.708-20.915-9.569-33.98-15.413l-0.046-0.02-0.045-0.021-3.44-1.532c-13.07-5.82-26.566-11.83-40.953-18.474-1.12-1.471-3.566-5.169-6.963-13.049-2.04-4.732-4.028-10.029-6.012-15.706 40.216-40.627 61.994-103.545 61.994-181.034 0-36.387-7.067-68.602-21.006-95.754-12.828-24.99-31.143-45.342-54.436-60.488-38.418-24.977-79.96-28.706-101.305-28.706z" p-id="1097"></path></svg>