<?xml version="1.0" standalone="no"?><!DOCTYPE svg PUBLIC "-//W3C//DTD SVG 1.1//EN" "http://www.w3.org/Graphics/SVG/1.1/DTD/svg11.dtd"><svg t="1585112074472" class="icon" viewBox="0 0 1024 1024" version="1.1" xmlns="http://www.w3.org/2000/svg" p-id="40659" xmlns:xlink="http://www.w3.org/1999/xlink" width="200" height="200"><defs><style type="text/css"></style></defs><path d="M327.728136 804.301276l150.60509-60.966537 33.721009-13.627369 33.721009 13.627369 150.609183 60.914348-4.484128-166.562527-0.907673-32.985252 20.663622-25.711592 96.563266-120.353089L652.842749 411.574776l-30.030967-9.081843-17.825994-25.716708-92.931552-134.033669-92.871177 134.033669-17.825994 25.716708-30.033014 9.081843-155.490354 47.120181 96.566336 120.29476 20.663622 25.711592-0.907673 32.985252L327.728136 804.301276M789.940197 939.129031 512.054235 826.727031 234.17339 939.129031l8.115841-303.886125L62.389956 411.175687l282.879696-85.667102L512.054235 84.869946l166.843936 240.638639 282.711873 85.667102L781.766027 635.243929 789.940197 939.129031 789.940197 939.129031 789.940197 939.129031z" p-id="40660"></path></svg>