<?xml version="1.0" standalone="no"?><!DOCTYPE svg PUBLIC "-//W3C//DTD SVG 1.1//EN" "http://www.w3.org/Graphics/SVG/1.1/DTD/svg11.dtd"><svg t="1585112137958" class="icon" viewBox="0 0 1024 1024" version="1.1" xmlns="http://www.w3.org/2000/svg" p-id="43867" xmlns:xlink="http://www.w3.org/1999/xlink" width="200" height="200"><defs><style type="text/css"></style></defs><path d="M896 704c0-149.333333-170.666667-149.333333-170.666667-362.666667 0-87.466667-53.333333-164.266667-130.133333-196.266667C597.333333 138.666667 597.333333 134.4 597.333333 128c0-46.933333-38.4-85.333333-85.333333-85.333333s-85.333333 38.4-85.333333 85.333333c0 6.4 0 10.666667 2.133333 17.066667C352 177.066667 298.666667 253.866667 298.666667 341.333333c0 213.333333-170.666667 213.333333-170.666667 362.666667 0 66.133333 106.666667 119.466667 256 140.8 0 2.133333 0 6.4 0 8.533333 0 70.4 57.6 128 128 128s128-57.6 128-128c0-2.133333 0-6.4 0-8.533333C789.333333 823.466667 896 770.133333 896 704zM512 85.333333c23.466667 0 42.666667 19.2 42.666667 42.666667s-19.2 42.666667-42.666667 42.666667-42.666667-19.2-42.666667-42.666667S488.533333 85.333333 512 85.333333zM232.533333 588.8C281.6 537.6 341.333333 473.6 341.333333 341.333333c0-70.4 44.8-132.266667 106.666667-157.866667 14.933333 19.2 38.4 29.866667 64 29.866667s49.066667-12.8 64-29.866667c61.866667 25.6 106.666667 87.466667 106.666667 157.866667 0 132.266667 59.733333 196.266667 108.8 247.466667 8.533333 10.666667 17.066667 19.2 25.6 27.733333C776.533333 654.933333 654.933333 682.666667 512 682.666667c-142.933333 0-264.533333-27.733333-305.066667-66.133333C215.466667 605.866667 224 597.333333 232.533333 588.8zM512 938.666667c-46.933333 0-85.333333-38.4-85.333333-85.333333 0-2.133333 0-2.133333 0-4.266667 27.733333 2.133333 55.466667 4.266667 85.333333 4.266667s57.6-2.133333 85.333333-4.266667c0 2.133333 0 2.133333 0 4.266667C597.333333 900.266667 558.933333 938.666667 512 938.666667zM512 810.666667c-221.866667 0-341.333333-70.4-341.333333-106.666667 0-23.466667 6.4-40.533333 14.933333-57.6C243.2 693.333333 366.933333 725.333333 512 725.333333c145.066667 0 268.8-32 326.4-78.933333 8.533333 17.066667 14.933333 34.133333 14.933333 57.6C853.333333 740.266667 733.866667 810.666667 512 810.666667z" p-id="43868"></path></svg>