<?xml version="1.0" standalone="no"?><!DOCTYPE svg PUBLIC "-//W3C//DTD SVG 1.1//EN" "http://www.w3.org/Graphics/SVG/1.1/DTD/svg11.dtd"><svg t="1585309860162" class="icon" viewBox="0 0 1024 1024" version="1.1" xmlns="http://www.w3.org/2000/svg" p-id="21013" xmlns:xlink="http://www.w3.org/1999/xlink" width="200" height="200"><defs><style type="text/css"></style></defs><path d="M459.916991 1024c-10.163772 0-15.245658 0-25.40943-5.081886l-406.550868-228.684863c-15.245658-10.163772-25.409429-25.409429-25.409429-45.736973v-457.369727c0-20.327543 10.163772-35.573201 30.491315-45.736973l355.73201-177.866005c20.327543-10.163772 50.818859 0 66.064516 25.409429s0 55.900744-20.327544 66.064517L104.184981 317.617866V714.004963l355.73201 203.275434 355.73201-198.193548V612.367246c0-30.491315 20.327543-50.818859 50.818858-50.818859s50.818859 20.327543 50.818859 50.818859v137.210918c0 20.327543-10.163772 35.573201-25.40943 45.736972l-406.550868 228.684864H459.916991z" p-id="21014"></path><path d="M790.239571 510.729529c-10.163772 0-15.245658 0-25.409429-5.081886l-177.866005-101.637717c-15.245658-10.163772-25.409429-25.409429-25.409429-45.736973V154.997519c0-20.327543 10.163772-35.573201 25.409429-45.736973l177.866005-101.637717c15.245658-10.163772 35.573201-10.163772 50.818859 0l177.866005 101.637717c15.245658 10.163772 25.409429 25.409429 25.409429 45.736973v203.275434c0 20.327543-10.163772 35.573201-25.409429 45.736973l-177.866005 101.637717c-10.163772 5.081886-15.245658 5.081886-25.40943 5.081886zM663.192425 327.781638l127.047146 71.146402L917.286718 327.781638V185.488834l-127.047147-71.146402L663.192425 185.488834v142.292804z" p-id="21015"></path></svg>