<?xml version="1.0" standalone="no"?><!DOCTYPE svg PUBLIC "-//W3C//DTD SVG 1.1//EN" "http://www.w3.org/Graphics/SVG/1.1/DTD/svg11.dtd"><svg t="1585106326141" class="icon" viewBox="0 0 1024 1024" version="1.1" xmlns="http://www.w3.org/2000/svg" p-id="22699" xmlns:xlink="http://www.w3.org/1999/xlink" width="200" height="200"><defs><style type="text/css"></style></defs><path d="M226.220218 352.842473c-11.906327-91.042909 7.847564-156.020364 54.150982-184.608582 47.699782-29.3888 117.424873-14.214982 194.681018 42.793891C548.528873 264.685382 623.131927 349.090909 682.9056 449.442909l10.398255 18.013091c56.003491 96.991418 93.556364 197.241018 104.457309 283.331491 11.915636 91.0336-7.838255 156.020364-54.141673 184.599273-47.699782 29.3888-117.424873 14.214982-193.880436-41.397528-73.467345-53.6576-148.061091-138.072436-207.853382-238.415127l-10.398255-18.0224C274.683345 539.173236 237.130473 438.923636 226.220218 352.842473zM645.678545 477.184c-55.323927-89.860655-119.789382-165.739055-185.120581-213.280582-59.727127-43.817891-110.834036-57.800145-143.117964-39.172654-30.235927 19.195345-42.3936 69.715782-33.224145 139.245381 10.873018 75.496727 44.1344 165.915927 94.6176 253.34691l9.039127 15.6672c55.323927 89.851345 119.798691 165.729745 185.120582 213.271272 59.727127 43.817891 110.843345 57.800145 143.117963 39.163346 30.235927-19.195345 42.3936-69.706473 33.233455-139.236073-10.128291-74.202764-43.380364-164.603345-94.6176-253.346909l-9.048437-15.657891z" fill="" p-id="22700"></path><path d="M528.002327 751.010909h-20.796509c-116.801164-1.601164-227.197673-23.998836-310.402327-60.797673-86.397673-38.4-134.404655-91.201164-132.803491-147.195345 1.601164-54.402327 47.997673-104.001164 132.803491-139.198836 80.002327-33.596509 185.604655-51.2 297.602327-51.2h20.796509c116.801164 1.601164 227.197673 23.998836 310.402328 60.797672 87.998836 38.4 135.996509 91.201164 134.404654 147.195346-1.601164 54.402327-47.997673 104.001164-132.803491 139.198836-80.002327 33.596509-185.604655 51.2-299.203491 51.2zM491.706182 398.717673c-102.474473 0-197.399273 16.402618-266.714764 44.730182-64.791273 26.838109-102.465164 62.622255-103.973236 98.39709 0 37.2736 37.673891 74.5472 105.481309 104.364219 73.839709 32.795927 171.780655 50.688 277.261964 53.676218h18.078254c100.9664 0 195.8912-16.402618 266.714764-44.730182 64.791273-26.838109 102.465164-62.622255 103.973236-98.397091 0-37.2736-37.673891-74.5472-105.481309-104.364218-73.839709-32.795927-171.780655-50.688-277.261964-53.676218H491.706182zM616.448 168.317673c0 52.801164 43.203491 94.403491 94.403491 94.403491 52.801164 0 94.403491-43.203491 94.403491-94.403491 0-52.801164-43.203491-94.403491-94.403491-94.403491-52.810473 0-94.403491 41.602327-94.403491 94.403491" fill="" p-id="22701"></path><path d="M741.906618 302.713018c1.424291 18.180655 0.856436 38.623418-2.131782 61.272437-10.873018 75.496727-44.1344 165.915927-94.6176 253.346909l-9.039127 15.6672c-55.323927 89.851345-119.798691 165.729745-185.120582 213.271272-59.727127 43.817891-110.843345 57.800145-143.117963 39.163346-30.235927-19.195345-42.3936-69.706473-33.233455-139.236073 10.128291-74.202764 43.380364-164.603345 94.6176-253.346909l9.048436-15.657891c55.323927-89.860655 119.789382-165.739055 185.120582-213.280582a362.952145 362.952145 0 0 1 32.535273-21.429527l-26.363345-45.6704c-6.823564 4.421818-13.702982 9.094982-20.666182 14.2336C475.471127 264.685382 400.868073 349.090909 341.0944 449.442909l-10.398255 18.013091c-56.003491 96.991418-93.556364 197.241018-104.457309 283.331491-11.915636 91.0336 7.838255 156.020364 54.141673 184.599273 47.699782 29.3888 117.424873 14.214982 193.880436-41.397528 73.467345-53.6576 148.061091-138.072436 207.853382-238.415127l10.398255-18.0224c56.804073-98.378473 94.356945-198.628073 105.2672-284.709236 3.118545-23.849891 3.928436-45.7728 2.783418-65.852509l-58.656582 15.723054z" fill="" p-id="22702"></path></svg>