<?xml version="1.0" standalone="no"?><!DOCTYPE svg PUBLIC "-//W3C//DTD SVG 1.1//EN" "http://www.w3.org/Graphics/SVG/1.1/DTD/svg11.dtd"><svg t="1585107816262" class="icon" viewBox="0 0 1024 1024" version="1.1" xmlns="http://www.w3.org/2000/svg" p-id="27992" xmlns:xlink="http://www.w3.org/1999/xlink" width="200" height="200"><defs><style type="text/css"></style></defs><path d="M202.3 201h230.8v64.1H202.3zM202.3 376.8h519.2v64.1H202.3zM202.3 552.7h288.4v64.1H202.3zM202.3 728.5h230.8v64.1H202.3z" fill="#727272" p-id="27993"></path><path d="M836.3 584.2V276.6L620.3 64H96v896h625.5c42.5 0 82-12.8 114.8-34.6 55.3-36.8 91.7-99.5 91.7-170.6S891.6 621 836.3 584.2z m-229.8-443L748.2 282H606.5V141.2zM636 848.5h-64.5V731.2H636v117.3z m53.5 0V672.6H754v175.8h-64.5z m32-299c-114 0-206.5 91.9-206.5 205.2 0 56.6 23.1 107.9 60.3 145H154.1V123.2h388v222.9h64.4v-0.1h160.6v208.6c-14.6-3.3-29.9-5.1-45.6-5.1z m114.8 299h-28.9v-58.6h64.5v58.6h-35.6z" fill="#727272" p-id="27994"></path></svg>