<?xml version="1.0" standalone="no"?><!DOCTYPE svg PUBLIC "-//W3C//DTD SVG 1.1//EN" "http://www.w3.org/Graphics/SVG/1.1/DTD/svg11.dtd"><svg t="1585109273402" class="icon" viewBox="0 0 1024 1024" version="1.1" xmlns="http://www.w3.org/2000/svg" p-id="34945" xmlns:xlink="http://www.w3.org/1999/xlink" width="200" height="200"><defs><style type="text/css"></style></defs><path d="M768 405.333333c0-12.8-8.533333-21.333333-21.333333-21.333333l-170.666667 0 104.533333-313.6 0 0C682.666667 68.266667 682.666667 66.133333 682.666667 64c0-12.8-8.533333-21.333333-21.333333-21.333333L448 42.666667c-8.533333 0-17.066667 6.4-19.2 14.933333l0 0-170.666667 512 0 0c0 2.133333-2.133333 4.266667-2.133333 6.4 0 12.8 8.533333 21.333333 21.333333 21.333333l189.866667 0L426.666667 957.866667l0 0c0 0 0 2.133333 0 2.133333 0 12.8 8.533333 21.333333 21.333333 21.333333 8.533333 0 14.933333-4.266667 19.2-12.8l0 0 298.666667-554.666667 0 0C768 411.733333 768 409.6 768 405.333333zM482.133333 853.333333 512 578.133333l0 0c0 0 0-2.133333 0-2.133333 0-12.8-8.533333-21.333333-21.333333-21.333333l-183.466667 0 155.733333-469.333333 168.533333 0-104.533333 313.6 0 0c0 2.133333-2.133333 4.266667-2.133333 6.4 0 12.8 8.533333 21.333333 21.333333 21.333333l164.266667 0L482.133333 853.333333z" p-id="34946"></path></svg>