<?xml version="1.0" standalone="no"?><!DOCTYPE svg PUBLIC "-//W3C//DTD SVG 1.1//EN" "http://www.w3.org/Graphics/SVG/1.1/DTD/svg11.dtd"><svg t="1585107271351" class="icon" viewBox="0 0 1024 1024" version="1.1" xmlns="http://www.w3.org/2000/svg" p-id="25153" xmlns:xlink="http://www.w3.org/1999/xlink" width="200" height="200"><defs><style type="text/css"></style></defs><path d="M512 938.666667a426.666667 426.666667 0 1 1 0-853.333334 426.666667 426.666667 0 0 1 0 853.333334z m0-56.888889a369.777778 369.777778 0 1 0 0-739.555556 369.777778 369.777778 0 0 0 0 739.555556z" p-id="25154"></path><path d="M702.008889 319.260444c-44.885333-44.828444-112.867556-49.720889-151.665778-10.922666l-102.968889 102.968889c-20.195556 20.195556-28.273778 48.298667-25.315555 76.913777a26.453333 26.453333 0 0 0-43.292445-8.305777L310.044444 548.579556c-38.798222 38.741333-33.905778 106.780444 10.922667 151.608888s112.867556 49.720889 151.665778 10.922667l102.968889-102.968889c20.138667-20.195556 28.216889-48.298667 25.315555-76.913778a26.453333 26.453333 0 0 0 43.235556 8.305778l68.664889-68.608c38.798222-38.798222 33.905778-106.837333-10.922667-151.665778z m-26.908445 113.891556L606.492444 501.76a26.396444 26.396444 0 0 0-7.566222 17.351111 125.724444 125.724444 0 0 0-34.247111-62.577778 26.737778 26.737778 0 0 0-37.774222 37.774223c23.608889 23.552 28.615111 58.424889 10.922667 76.060444l-102.968889 102.968889c-17.635556 17.635556-52.451556 12.629333-76.060445-10.922667-23.552-23.608889-28.558222-58.424889-10.922666-76.117333L416.540444 517.688889a26.339556 26.339556 0 0 0 7.509334-17.351111c4.778667 22.357333 16.042667 44.373333 34.247111 62.577778a26.737778 26.737778 0 0 0 37.774222-37.774223c-23.608889-23.552-28.558222-58.424889-10.922667-76.060444l102.968889-102.968889c17.635556-17.635556 52.508444-12.629333 76.060445 10.922667 23.608889 23.608889 28.558222 58.424889 10.922666 76.117333z" p-id="25155"></path></svg>