<?xml version="1.0" standalone="no"?><!DOCTYPE svg PUBLIC "-//W3C//DTD SVG 1.1//EN" "http://www.w3.org/Graphics/SVG/1.1/DTD/svg11.dtd"><svg t="1585309926232" class="icon" viewBox="0 0 1024 1024" version="1.1" xmlns="http://www.w3.org/2000/svg" p-id="21977" xmlns:xlink="http://www.w3.org/1999/xlink" width="200" height="200"><defs><style type="text/css"></style></defs><path d="M512 512m-116.1 0a116.1 116.1 0 1 0 232.2 0 116.1 116.1 0 1 0-232.2 0Z" p-id="21978"></path><path d="M903.6 487.9c-117.6-148-248.2-222-391.6-222s-274 74-391.6 222c-11.2 14.1-11.2 34.1 0 48.2 117.6 148 248.2 222 391.6 222s274-74 391.6-222c11.2-14.1 11.2-34.1 0-48.2zM512 676.1c-90.6 0-164.1-73.4-164.1-164.1 0-90.6 73.5-164.1 164.1-164.1S676.1 421.4 676.1 512 602.6 676.1 512 676.1z" p-id="21979"></path></svg>