<?xml version="1.0" standalone="no"?><!DOCTYPE svg PUBLIC "-//W3C//DTD SVG 1.1//EN" "http://www.w3.org/Graphics/SVG/1.1/DTD/svg11.dtd"><svg t="1586487069106" class="icon" viewBox="0 0 1024 1024" version="1.1" xmlns="http://www.w3.org/2000/svg" p-id="2251" xmlns:xlink="http://www.w3.org/1999/xlink" width="200" height="200"><defs><style type="text/css"></style></defs><path d="M1004.8 614.4 979.2 640c-25.6 25.6-70.4 25.6-96 0l-70.4-70.4 0 377.6L614.4 947.2l0-300.8L409.6 646.4l0 300.8L211.2 947.2 211.2 569.6 140.8 640c-25.6 25.6-70.4 25.6-96 0L19.2 614.4c-25.6-25.6-25.6-70.4 0-96L448 96c19.2-19.2 38.4-25.6 64-19.2 19.2-6.4 44.8 0 64 19.2l428.8 428.8C1030.4 544 1030.4 588.8 1004.8 614.4zM780.8 76.8l134.4 0 0 268.8-134.4-134.4L780.8 76.8z" p-id="2252"></path></svg>