<?xml version="1.0" standalone="no"?><!DOCTYPE svg PUBLIC "-//W3C//DTD SVG 1.1//EN" "http://www.w3.org/Graphics/SVG/1.1/DTD/svg11.dtd"><svg t="1585310037966" class="icon" viewBox="0 0 1024 1024" version="1.1" xmlns="http://www.w3.org/2000/svg" p-id="22883" xmlns:xlink="http://www.w3.org/1999/xlink" width="200" height="200"><defs><style type="text/css"></style></defs><path d="M490.816 698.133a21.355 21.355 0 0 1-4.907 2.987l-176.938 78.443c-50.134 19.797-89.11-18.774-70.55-69.803l0.918-2.176 84.138-170.09a21.333 21.333 0 0 1 3.435-5.014 21.564 21.564 0 0 1 3.264-4.16l422.379-422.4a64 64 0 0 1 90.496 0l75.434 75.435a64 64 0 0 1 0 90.517L496.107 694.251a21.333 21.333 0 0 1-5.291 3.882zM360.576 558.72l-82.432 166.656c-5.461 15.83-0.235 20.587 14.336 14.827l172.928-76.651L360.576 558.72z m135.53 75.179l316.8-316.779-105.6-105.6-316.8 316.8 105.6 105.6z m346.945-346.944l45.269-45.27a21.333 21.333 0 0 0 0-30.165l-75.435-75.413a21.333 21.333 0 0 0-30.165 0l-45.248 45.226 105.6 105.6zM896 454.272a21.333 21.333 0 0 1 42.667 0v335.061a149.333 149.333 0 0 1-149.334 149.334H234.667A149.333 149.333 0 0 1 85.333 789.333V234.667A149.333 149.333 0 0 1 234.667 85.333h338.496a21.333 21.333 0 1 1 0 42.667H234.667A106.667 106.667 0 0 0 128 234.667v554.666A106.667 106.667 0 0 0 234.667 896h554.666A106.667 106.667 0 0 0 896 789.333V454.272z" fill="" p-id="22884"></path></svg>