<?xml version="1.0" standalone="no"?><!DOCTYPE svg PUBLIC "-//W3C//DTD SVG 1.1//EN" "http://www.w3.org/Graphics/SVG/1.1/DTD/svg11.dtd"><svg t="1585552281745" class="icon" viewBox="0 0 1024 1024" version="1.1" xmlns="http://www.w3.org/2000/svg" p-id="17134" xmlns:xlink="http://www.w3.org/1999/xlink" width="200" height="200"><defs><style type="text/css"></style></defs><path d="M958.6 362.5l-0.1-0.5-0.1-0.5c-0.1-0.6-0.1-2.2-0.1-3.1v-1.2l-1.7-7.5-0.2-0.6c-5.8-16.5-16-26.7-23.4-34.1l-5.4-5.4c-5.6-6.4-11.9-12.3-18.1-18.1-5.2-4.8-10.1-9.3-15.1-14.6l-0.2-0.2-132-128.9-1.4-1.4c-6.9-7-14.8-14.9-26.4-20.9-12.6-6.8-28.2-8.2-47.8-8.2-1.1 0-4 0-8-0.1-8.7-0.1-21.8-0.3-32.4-0.3-12.4 0-15.8 0.2-17.5 0.5-4.6 0.7-12.7 3.4-15.7 4.5l-1.2 0.4-16.9 11.3-0.2 0.1c-7.7 5.7-12.8 12.6-16.5 17.7l-0.4 0.5-0.1 0.2c-1.2 1.8-2.7 3.6-3.6 4.6-13.5 10.8-22.8 13.8-49 19.3l-0.3 0.1-0.3 0.1c-4.3 1.2-7.7 1.3-9.2 1.4l-16-0.8c-13.8-2.6-24.1-5-32.8-8.8l-0.3-0.1c-7.6-3-15.2-8.5-17.7-11.8l-1.3-1.7c-4.9-6.7-11.2-14.6-20.2-21.6-6.6-5.4-20.1-12.7-28.5-14.4-6.3-1.3-16.3-2-30.3-2-22.7 0-47.9 1.7-49 1.8l-0.9 0.1-22.6 5.6-0.7 0.3c-15.1 6-25.5 16.4-32.4 23.3L122.9 284.7c-4.1 3.6-7.7 7.2-11.2 10.7-3 3-5.9 5.9-10 9.6-12.2 10.5-30.6 26.4-36.2 55.8-3.2 16.6 3.2 31.3 6.7 39.2l0.2 0.4c6.3 14.1 16 23.1 23 29.7l1.3 1.2 0.5 0.4c1.1 0.8 2.6 2.3 3.7 3.4l5.1 5.1c5 5.5 10.4 10.4 15.6 15.2l17.3 17.3 31.9 30.6 9.1 9.1c0.6 0.6 1.2 1.3 1.9 1.9 3.6 3.6 8 8.1 13.9 12.3l0.2 0.2c13.1 8.8 29.4 13.9 44.7 13.9 6.8 0 13.2-0.9 19.1-2.8V823.7c0 11.5-0.1 24.4 4.7 36.7 6.5 16.8 20 29.5 29.6 35.3 15.8 10.3 35.1 11.7 53.7 11.7h296.2l26.7 0.4c22.1 0 47.3-1.2 67.1-16.1 12.7-9.7 22.5-25.6 26.2-42.5l0.1-0.5 0.6-5v-0.5c0.4-27.1 0.4-53.3 0.4-80.9v-225c6.8 2.1 13.8 3.2 21 3.2 4.7 0 9.5-0.5 14.3-1.4 27.3-5.1 44.7-25.1 55.1-37.2l83.9-81.3 2.3-2.9 0.9-1.3c6.1-8 20.1-26.8 16.1-53.9z m-147.1 94.2l-2.8 3.3-0.8 0.9c-5.8 6.4-13.6 15.2-18.9 16.2-0.9 0.2-1.8 0.3-2.6 0.3-4.2 0-7.8-2.9-16.8-11.4l-29-27.9-38.5 26.5v297.6c0 13.1-0.1 26.4-0.2 39.3-0.1 12.1-0.2 24.5-0.2 36.7-0.8 1.6-2 3.2-2.5 3.7-4.3 3-21.5 3.4-28.7 3.4l-305.6-0.4-17 0.4c-14.7 0-18.8-1.3-19.8-1.8l-0.1-0.1c-1.4-0.9-3.6-3.4-4.4-4.8-0.6-3.1-0.6-11.8-0.6-16.7V464l-42.6-25-5.8 6.6c-3.6 4.1-13.5 15.2-16.1 17.8l-0.2 0.2c-6.2 6.5-11.3 11.7-17 13.9h-0.4c-2.5 0-6.6-1.5-8.4-2.7l-0.4-0.3-0.4-0.2c-1.1-0.6-2.9-2.4-4.5-4.2-0.6-0.6-1.3-1.3-1.9-2l-41.8-40.4a336.7 336.7 0 0 1-16.9-16.9l-0.7-0.7-2.3-1.7c-3.1-2.5-5.9-5.4-8.8-8.4-1-1.1-2.1-2.2-3.2-3.2l-5.7-6.1-0.1-0.1c-2.3-2.3-4.3-4.3-6.8-6.3-5.4-4.6-7.3-6.8-8.5-9.4-0.3-1-0.7-2.1-1.2-3.2-0.2-0.4-0.4-0.9-0.5-1.3 1.4-5.5 5-9.2 16.2-19.2l0.2-0.2 11.6-11.6c1.3-1.3 2.7-2.6 4.2-4 1.7-1.6 3.4-3.2 5.3-5.1l116.1-113.5 25.3-24.9 0.3-0.3c7.9-8.4 9.4-9.1 13.3-9.3l12-0.9h50.5c0.3 0.1 0.6 0.2 0.8 0.3 0.9 0.3 1.6 0.5 2 0.8l0.7 0.3 0.7 0.2c0.5 0.2 1.1 0.4 1.7 0.5 2.5 2.4 5 5.3 8 9.3l1.3 1.7 0.2 0.2c14.1 17.8 36.5 28.3 43 31.1l0.2 0.1c13.5 5.5 27.8 9.3 48 12.8l0.4 0.1 14.5 1.3c2.9 0.5 6 0.7 9.4 0.7 6.4 0 13.8-0.8 22.8-2.6 32.1-6.2 51.8-12.7 76.6-32.2 6.7-5.2 11.1-10.8 14.8-16 1.3-1.4 2.4-2.8 3.4-4 0.1-0.2 0.3-0.4 0.5-0.6l6-3.4c1-0.2 2.3-0.4 3.9-0.8h15c2.3 0 4.7-0.1 7-0.2 2.4-0.1 4.9-0.2 7.4-0.2h0.8c4.8-0.4 9.7-0.4 14.8-0.4 12.1 0 17 0.8 18.5 1.1 3.4 2 8.2 6.8 12.4 11l131.3 127.8c5.3 5.7 11 11 17.5 17 4.4 4 10.4 9.5 15.1 14.6l0.2 0.2 6 6 0.2 0.1c3.8 3.5 6 5.9 7.5 8.1v0.1l0.6 4v0.2c0.1 0.4 0.3 1.4-3.3 6.3l-82.2 79.8z" fill="" p-id="17135"></path></svg>