<?xml version="1.0" standalone="no"?><!DOCTYPE svg PUBLIC "-//W3C//DTD SVG 1.1//EN" "http://www.w3.org/Graphics/SVG/1.1/DTD/svg11.dtd"><svg t="1585309602754" class="icon" viewBox="0 0 1024 1024" version="1.1" xmlns="http://www.w3.org/2000/svg" p-id="19602" xmlns:xlink="http://www.w3.org/1999/xlink" width="200" height="200"><defs><style type="text/css"></style></defs><path d="M832 403.498667a21.333333 21.333333 0 0 0 21.333333-21.333334V276.736A106.24 106.24 0 0 0 747.136 170.666667H276.864A106.24 106.24 0 0 0 170.666667 276.736v342.528A106.24 106.24 0 0 0 276.864 725.333333h470.272A106.24 106.24 0 0 0 853.333333 619.264V512a21.333333 21.333333 0 0 0-42.666666 0v107.264A63.573333 63.573333 0 0 1 747.136 682.666667H276.864A63.573333 63.573333 0 0 1 213.333333 619.264V276.736A63.573333 63.573333 0 0 1 276.864 213.333333h470.272A63.573333 63.573333 0 0 1 810.666667 276.736v105.429333a21.333333 21.333333 0 0 0 21.333333 21.333334M792.917333 810.666667H232.917333a21.333333 21.333333 0 0 0 0 42.666666h560a21.333333 21.333333 0 0 0 0-42.666666" p-id="19603"></path><path d="M438.869333 502.741333c0-40.832 33.237333-74.069333 74.069334-74.069333 40.874667 0 74.112 33.28 74.112 74.069333v71.722667h-148.181334v-71.68z m-57.6 114.389334h263.381334a21.333333 21.333333 0 0 0 0-42.666667h-14.933334v-71.68a116.906667 116.906667 0 0 0-116.778666-116.778667 116.906667 116.906667 0 0 0-116.736 116.736v71.722667h-14.933334a21.333333 21.333333 0 1 0 0 42.666667zM411.221333 388.437333a21.418667 21.418667 0 0 0 15.104-36.437333L389.973333 315.733333a21.333333 21.333333 0 0 0-30.165333 30.208l36.266667 36.266667a21.418667 21.418667 0 0 0 15.104 6.272M302.293333 445.952a21.333333 21.333333 0 0 0 21.333334 21.333333h51.285333a21.333333 21.333333 0 1 0 0-42.666666H323.626667a21.333333 21.333333 0 0 0-21.333334 21.333333M724.309333 445.952a21.333333 21.333333 0 0 0-21.333333-21.333333h-51.328a21.333333 21.333333 0 0 0 0 42.666666h51.328a21.333333 21.333333 0 0 0 21.333333-21.333333M613.12 388.437333a21.418667 21.418667 0 0 0 15.061333-6.186666l36.266667-36.309334a21.333333 21.333333 0 0 0-30.165333-30.165333l-36.266667 36.266667a21.418667 21.418667 0 0 0 15.061333 36.437333M535.04 348.16V296.874667a21.333333 21.333333 0 1 0-42.666667 0V348.16a21.333333 21.333333 0 0 0 42.666667 0" p-id="19604"></path></svg>